<?xml version="1.0" encoding="utf-8" standalone="no"?>
<!DOCTYPE svg PUBLIC "-//W3C//DTD SVG 1.1//EN"
  "http://www.w3.org/Graphics/SVG/1.1/DTD/svg11.dtd">
<svg xmlns:xlink="http://www.w3.org/1999/xlink" width="1165.275pt" height="697.8375pt" viewBox="0 0 1165.275 697.8375" xmlns="http://www.w3.org/2000/svg" version="1.1">
 <metadata>
  <rdf:RDF xmlns:dc="http://purl.org/dc/elements/1.1/" xmlns:cc="http://creativecommons.org/ns#" xmlns:rdf="http://www.w3.org/1999/02/22-rdf-syntax-ns#">
   <cc:Work>
    <dc:type rdf:resource="http://purl.org/dc/dcmitype/StillImage"/>
    <dc:date>2025-09-04T08:56:00.322923</dc:date>
    <dc:format>image/svg+xml</dc:format>
    <dc:creator>
     <cc:Agent>
      <dc:title>Matplotlib v3.6.3, https://matplotlib.org/</dc:title>
     </cc:Agent>
    </dc:creator>
   </cc:Work>
  </rdf:RDF>
 </metadata>
 <defs>
  <style type="text/css">*{stroke-linejoin: round; stroke-linecap: butt}</style>
 </defs>
 <g id="figure_1">
  <g id="patch_1">
   <path d="M 0 697.8375 
L 1165.275 697.8375 
L 1165.275 0 
L 0 0 
z
" style="fill: #ffffff"/>
  </g>
  <g id="axes_1">
   <g id="patch_2">
    <path d="M 7.2 137.3463 
L 1123.2 137.3463 
Q 1123.8975 137.3463 1123.8975 136.2375 
L 1123.8975 25.3575 
Q 1123.8975 24.2487 1123.2 24.2487 
L 7.2 24.2487 
Q 6.5025 24.2487 6.5025 25.3575 
L 6.5025 136.2375 
Q 6.5025 137.3463 7.2 137.3463 
z
" clip-path="url(#pdd34959e8a)" style="fill: #ffeded; opacity: 0.85; stroke: #000000; stroke-linejoin: miter"/>
   </g>
   <g id="patch_3">
    <path d="M 7.2 248.2263 
L 1123.2 248.2263 
Q 1123.8975 248.2263 1123.8975 247.1175 
L 1123.8975 136.2375 
Q 1123.8975 135.1287 1123.2 135.1287 
L 7.2 135.1287 
Q 6.5025 135.1287 6.5025 136.2375 
L 6.5025 247.1175 
Q 6.5025 248.2263 7.2 248.2263 
z
" clip-path="url(#pdd34959e8a)" style="fill: #eaffea; opacity: 0.85; stroke: #000000; stroke-linejoin: miter"/>
   </g>
   <g id="patch_4">
    <path d="M 7.2 359.1063 
L 1123.2 359.1063 
Q 1123.8975 359.1063 1123.8975 357.9975 
L 1123.8975 247.1175 
Q 1123.8975 246.0087 1123.2 246.0087 
L 7.2 246.0087 
Q 6.5025 246.0087 6.5025 247.1175 
L 6.5025 357.9975 
Q 6.5025 359.1063 7.2 359.1063 
z
" clip-path="url(#pdd34959e8a)" style="fill: #eef3ff; opacity: 0.85; stroke: #000000; stroke-linejoin: miter"/>
   </g>
   <g id="patch_5">
    <path d="M 7.2 469.9863 
L 1123.2 469.9863 
Q 1123.8975 469.9863 1123.8975 468.8775 
L 1123.8975 357.9975 
Q 1123.8975 356.8887 1123.2 356.8887 
L 7.2 356.8887 
Q 6.5025 356.8887 6.5025 357.9975 
L 6.5025 468.8775 
Q 6.5025 469.9863 7.2 469.9863 
z
" clip-path="url(#pdd34959e8a)" style="fill: #fff7db; opacity: 0.85; stroke: #000000; stroke-linejoin: miter"/>
   </g>
   <g id="patch_6">
    <path d="M 7.2 580.8663 
L 1123.2 580.8663 
Q 1123.8975 580.8663 1123.8975 579.7575 
L 1123.8975 468.8775 
Q 1123.8975 467.7687 1123.2 467.7687 
L 7.2 467.7687 
Q 6.5025 467.7687 6.5025 468.8775 
L 6.5025 579.7575 
Q 6.5025 580.8663 7.2 580.8663 
z
" clip-path="url(#pdd34959e8a)" style="fill: #f2e6ff; opacity: 0.85; stroke: #000000; stroke-linejoin: miter"/>
   </g>
   <g id="patch_7">
    <path d="M 42.075 117.9423 
L 146.7 117.9423 
Q 147.3975 117.9423 147.3975 116.8335 
L 147.3975 44.7615 
Q 147.3975 43.6527 146.7 43.6527 
L 42.075 43.6527 
Q 41.3775 43.6527 41.3775 44.7615 
L 41.3775 116.8335 
Q 41.3775 117.9423 42.075 117.9423 
z
" clip-path="url(#pdd34959e8a)" style="fill: #ffffff; stroke: #000000; stroke-linejoin: miter"/>
   </g>
   <g id="patch_8">
    <path d="M 495.45 117.9423 
L 600.075 117.9423 
Q 600.7725 117.9423 600.7725 116.8335 
L 600.7725 44.7615 
Q 600.7725 43.6527 600.075 43.6527 
L 495.45 43.6527 
Q 494.7525 43.6527 494.7525 44.7615 
L 494.7525 116.8335 
Q 494.7525 117.9423 495.45 117.9423 
z
" clip-path="url(#pdd34959e8a)" style="fill: #ffffff; stroke: #000000; stroke-linejoin: miter"/>
   </g>
   <g id="patch_9">
    <path d="M 983.7 117.9423 
L 1088.325 117.9423 
Q 1089.0225 117.9423 1089.0225 116.8335 
L 1089.0225 44.7615 
Q 1089.0225 43.6527 1088.325 43.6527 
L 983.7 43.6527 
Q 983.0025 43.6527 983.0025 44.7615 
L 983.0025 116.8335 
Q 983.0025 117.9423 983.7 117.9423 
z
" clip-path="url(#pdd34959e8a)" style="fill: #ffffff; stroke: #000000; stroke-linejoin: miter"/>
   </g>
   <g id="patch_10">
    <path d="M 111.825 228.8223 
L 216.45 228.8223 
Q 217.1475 228.8223 217.1475 227.7135 
L 217.1475 155.6415 
Q 217.1475 154.5327 216.45 154.5327 
L 111.825 154.5327 
Q 111.1275 154.5327 111.1275 155.6415 
L 111.1275 227.7135 
Q 111.1275 228.8223 111.825 228.8223 
z
" clip-path="url(#pdd34959e8a)" style="fill: #ffffff; stroke: #000000; stroke-linejoin: miter"/>
   </g>
   <g id="patch_11">
    <path d="M 216.45 228.8223 
L 321.075 228.8223 
Q 321.7725 228.8223 321.7725 227.7135 
L 321.7725 155.6415 
Q 321.7725 154.5327 321.075 154.5327 
L 216.45 154.5327 
Q 215.7525 154.5327 215.7525 155.6415 
L 215.7525 227.7135 
Q 215.7525 228.8223 216.45 228.8223 
z
" clip-path="url(#pdd34959e8a)" style="fill: #ffffff; stroke: #000000; stroke-linejoin: miter"/>
   </g>
   <g id="patch_12">
    <path d="M 530.325 228.8223 
L 634.95 228.8223 
Q 635.6475 228.8223 635.6475 227.7135 
L 635.6475 155.6415 
Q 635.6475 154.5327 634.95 154.5327 
L 530.325 154.5327 
Q 529.6275 154.5327 529.6275 155.6415 
L 529.6275 227.7135 
Q 529.6275 228.8223 530.325 228.8223 
z
" clip-path="url(#pdd34959e8a)" style="fill: #ffffff; stroke: #000000; stroke-linejoin: miter"/>
   </g>
   <g id="patch_13">
    <path d="M 704.7 228.8223 
L 809.325 228.8223 
Q 810.0225 228.8223 810.0225 227.7135 
L 810.0225 155.6415 
Q 810.0225 154.5327 809.325 154.5327 
L 704.7 154.5327 
Q 704.0025 154.5327 704.0025 155.6415 
L 704.0025 227.7135 
Q 704.0025 228.8223 704.7 228.8223 
z
" clip-path="url(#pdd34959e8a)" style="fill: #ffffff; stroke: #000000; stroke-linejoin: miter"/>
   </g>
   <g id="patch_14">
    <path d="M 809.325 228.8223 
L 913.95 228.8223 
Q 914.6475 228.8223 914.6475 227.7135 
L 914.6475 155.6415 
Q 914.6475 154.5327 913.95 154.5327 
L 809.325 154.5327 
Q 808.6275 154.5327 808.6275 155.6415 
L 808.6275 227.7135 
Q 808.6275 228.8223 809.325 228.8223 
z
" clip-path="url(#pdd34959e8a)" style="fill: #ffffff; stroke: #000000; stroke-linejoin: miter"/>
   </g>
   <g id="patch_15">
    <path d="M 1053.45 228.8223 
L 1158.075 228.8223 
Q 1158.7725 228.8223 1158.7725 227.7135 
L 1158.7725 155.6415 
Q 1158.7725 154.5327 1158.075 154.5327 
L 1053.45 154.5327 
Q 1052.7525 154.5327 1052.7525 155.6415 
L 1052.7525 227.7135 
Q 1052.7525 228.8223 1053.45 228.8223 
z
" clip-path="url(#pdd34959e8a)" style="fill: #ffffff; stroke: #000000; stroke-linejoin: miter"/>
   </g>
   <g id="patch_16">
    <path d="M 286.2 339.7023 
L 390.825 339.7023 
Q 391.5225 339.7023 391.5225 338.5935 
L 391.5225 266.5215 
Q 391.5225 265.4127 390.825 265.4127 
L 286.2 265.4127 
Q 285.5025 265.4127 285.5025 266.5215 
L 285.5025 338.5935 
Q 285.5025 339.7023 286.2 339.7023 
z
" clip-path="url(#pdd34959e8a)" style="fill: #ffffff; stroke: #000000; stroke-linejoin: miter"/>
   </g>
   <g id="patch_17">
    <path d="M 390.825 339.7023 
L 495.45 339.7023 
Q 496.1475 339.7023 496.1475 338.5935 
L 496.1475 266.5215 
Q 496.1475 265.4127 495.45 265.4127 
L 390.825 265.4127 
Q 390.1275 265.4127 390.1275 266.5215 
L 390.1275 338.5935 
Q 390.1275 339.7023 390.825 339.7023 
z
" clip-path="url(#pdd34959e8a)" style="fill: #ffffff; stroke: #000000; stroke-linejoin: miter"/>
   </g>
   <g id="patch_18">
    <path d="M 565.2 339.7023 
L 669.825 339.7023 
Q 670.5225 339.7023 670.5225 338.5935 
L 670.5225 266.5215 
Q 670.5225 265.4127 669.825 265.4127 
L 565.2 265.4127 
Q 564.5025 265.4127 564.5025 266.5215 
L 564.5025 338.5935 
Q 564.5025 339.7023 565.2 339.7023 
z
" clip-path="url(#pdd34959e8a)" style="fill: #ffffff; stroke: #000000; stroke-linejoin: miter"/>
   </g>
   <g id="patch_19">
    <path d="M 774.45 339.7023 
L 879.075 339.7023 
Q 879.7725 339.7023 879.7725 338.5935 
L 879.7725 266.5215 
Q 879.7725 265.4127 879.075 265.4127 
L 774.45 265.4127 
Q 773.7525 265.4127 773.7525 266.5215 
L 773.7525 338.5935 
Q 773.7525 339.7023 774.45 339.7023 
z
" clip-path="url(#pdd34959e8a)" style="fill: #ffffff; stroke: #000000; stroke-linejoin: miter"/>
   </g>
   <g id="patch_20">
    <path d="M 425.7 450.5823 
L 530.325 450.5823 
Q 531.0225 450.5823 531.0225 449.4735 
L 531.0225 377.4015 
Q 531.0225 376.2927 530.325 376.2927 
L 425.7 376.2927 
Q 425.0025 376.2927 425.0025 377.4015 
L 425.0025 449.4735 
Q 425.0025 450.5823 425.7 450.5823 
z
" clip-path="url(#pdd34959e8a)" style="fill: #ffffff; stroke: #000000; stroke-linejoin: miter"/>
   </g>
   <g id="patch_21">
    <path d="M 879.075 450.5823 
L 983.7 450.5823 
Q 984.3975 450.5823 984.3975 449.4735 
L 984.3975 377.4015 
Q 984.3975 376.2927 983.7 376.2927 
L 879.075 376.2927 
Q 878.3775 376.2927 878.3775 377.4015 
L 878.3775 449.4735 
Q 878.3775 450.5823 879.075 450.5823 
z
" clip-path="url(#pdd34959e8a)" style="fill: #ffffff; stroke: #000000; stroke-linejoin: miter"/>
   </g>
   <g id="patch_22">
    <path d="M 634.95 561.4623 
L 739.575 561.4623 
Q 740.2725 561.4623 740.2725 560.3535 
L 740.2725 488.2815 
Q 740.2725 487.1727 739.575 487.1727 
L 634.95 487.1727 
Q 634.2525 487.1727 634.2525 488.2815 
L 634.2525 560.3535 
Q 634.2525 561.4623 634.95 561.4623 
z
" clip-path="url(#pdd34959e8a)" style="fill: #ffffff; stroke: #000000; stroke-linejoin: miter"/>
   </g>
   <g id="text_1">
    <!-- Client -->
    <g style="fill: #333333" transform="translate(24.6375 45.563625) scale(0.12 -0.12)">
     <defs>
      <path id="DejaVuSans-Bold-43" d="M 4288 256 
Q 3956 84 3597 -3 
Q 3238 -91 2847 -91 
Q 1681 -91 1000 561 
Q 319 1213 319 2328 
Q 319 3447 1000 4098 
Q 1681 4750 2847 4750 
Q 3238 4750 3597 4662 
Q 3956 4575 4288 4403 
L 4288 3438 
Q 3953 3666 3628 3772 
Q 3303 3878 2944 3878 
Q 2300 3878 1931 3465 
Q 1563 3053 1563 2328 
Q 1563 1606 1931 1193 
Q 2300 781 2944 781 
Q 3303 781 3628 887 
Q 3953 994 4288 1222 
L 4288 256 
z
" transform="scale(0.015625)"/>
      <path id="DejaVuSans-Bold-6c" d="M 538 4863 
L 1656 4863 
L 1656 0 
L 538 0 
L 538 4863 
z
" transform="scale(0.015625)"/>
      <path id="DejaVuSans-Bold-69" d="M 538 3500 
L 1656 3500 
L 1656 0 
L 538 0 
L 538 3500 
z
M 538 4863 
L 1656 4863 
L 1656 3950 
L 538 3950 
L 538 4863 
z
" transform="scale(0.015625)"/>
      <path id="DejaVuSans-Bold-65" d="M 4031 1759 
L 4031 1441 
L 1416 1441 
Q 1456 1047 1700 850 
Q 1944 653 2381 653 
Q 2734 653 3104 758 
Q 3475 863 3866 1075 
L 3866 213 
Q 3469 63 3072 -14 
Q 2675 -91 2278 -91 
Q 1328 -91 801 392 
Q 275 875 275 1747 
Q 275 2603 792 3093 
Q 1309 3584 2216 3584 
Q 3041 3584 3536 3087 
Q 4031 2591 4031 1759 
z
M 2881 2131 
Q 2881 2450 2695 2645 
Q 2509 2841 2209 2841 
Q 1884 2841 1681 2658 
Q 1478 2475 1428 2131 
L 2881 2131 
z
" transform="scale(0.015625)"/>
      <path id="DejaVuSans-Bold-6e" d="M 4056 2131 
L 4056 0 
L 2931 0 
L 2931 347 
L 2931 1631 
Q 2931 2084 2911 2256 
Q 2891 2428 2841 2509 
Q 2775 2619 2662 2680 
Q 2550 2741 2406 2741 
Q 2056 2741 1856 2470 
Q 1656 2200 1656 1722 
L 1656 0 
L 538 0 
L 538 3500 
L 1656 3500 
L 1656 2988 
Q 1909 3294 2193 3439 
Q 2478 3584 2822 3584 
Q 3428 3584 3742 3212 
Q 4056 2841 4056 2131 
z
" transform="scale(0.015625)"/>
      <path id="DejaVuSans-Bold-74" d="M 1759 4494 
L 1759 3500 
L 2913 3500 
L 2913 2700 
L 1759 2700 
L 1759 1216 
Q 1759 972 1856 886 
Q 1953 800 2241 800 
L 2816 800 
L 2816 0 
L 1856 0 
Q 1194 0 917 276 
Q 641 553 641 1216 
L 641 2700 
L 84 2700 
L 84 3500 
L 641 3500 
L 641 4494 
L 1759 4494 
z
" transform="scale(0.015625)"/>
     </defs>
     <use xlink:href="#DejaVuSans-Bold-43"/>
     <use xlink:href="#DejaVuSans-Bold-6c" x="73.388672"/>
     <use xlink:href="#DejaVuSans-Bold-69" x="107.666016"/>
     <use xlink:href="#DejaVuSans-Bold-65" x="141.943359"/>
     <use xlink:href="#DejaVuSans-Bold-6e" x="209.765625"/>
     <use xlink:href="#DejaVuSans-Bold-74" x="280.957031"/>
    </g>
   </g>
   <g id="text_2">
    <!-- Startup Team -->
    <g style="fill: #333333" transform="translate(24.6375 156.443625) scale(0.12 -0.12)">
     <defs>
      <path id="DejaVuSans-Bold-53" d="M 3834 4519 
L 3834 3531 
Q 3450 3703 3084 3790 
Q 2719 3878 2394 3878 
Q 1963 3878 1756 3759 
Q 1550 3641 1550 3391 
Q 1550 3203 1689 3098 
Q 1828 2994 2194 2919 
L 2706 2816 
Q 3484 2659 3812 2340 
Q 4141 2022 4141 1434 
Q 4141 663 3683 286 
Q 3225 -91 2284 -91 
Q 1841 -91 1394 -6 
Q 947 78 500 244 
L 500 1259 
Q 947 1022 1364 901 
Q 1781 781 2169 781 
Q 2563 781 2772 912 
Q 2981 1044 2981 1288 
Q 2981 1506 2839 1625 
Q 2697 1744 2272 1838 
L 1806 1941 
Q 1106 2091 782 2419 
Q 459 2747 459 3303 
Q 459 4000 909 4375 
Q 1359 4750 2203 4750 
Q 2588 4750 2994 4692 
Q 3400 4634 3834 4519 
z
" transform="scale(0.015625)"/>
      <path id="DejaVuSans-Bold-61" d="M 2106 1575 
Q 1756 1575 1579 1456 
Q 1403 1338 1403 1106 
Q 1403 894 1545 773 
Q 1688 653 1941 653 
Q 2256 653 2472 879 
Q 2688 1106 2688 1447 
L 2688 1575 
L 2106 1575 
z
M 3816 1997 
L 3816 0 
L 2688 0 
L 2688 519 
Q 2463 200 2181 54 
Q 1900 -91 1497 -91 
Q 953 -91 614 226 
Q 275 544 275 1050 
Q 275 1666 698 1953 
Q 1122 2241 2028 2241 
L 2688 2241 
L 2688 2328 
Q 2688 2594 2478 2717 
Q 2269 2841 1825 2841 
Q 1466 2841 1156 2769 
Q 847 2697 581 2553 
L 581 3406 
Q 941 3494 1303 3539 
Q 1666 3584 2028 3584 
Q 2975 3584 3395 3211 
Q 3816 2838 3816 1997 
z
" transform="scale(0.015625)"/>
      <path id="DejaVuSans-Bold-72" d="M 3138 2547 
Q 2991 2616 2845 2648 
Q 2700 2681 2553 2681 
Q 2122 2681 1889 2404 
Q 1656 2128 1656 1613 
L 1656 0 
L 538 0 
L 538 3500 
L 1656 3500 
L 1656 2925 
Q 1872 3269 2151 3426 
Q 2431 3584 2822 3584 
Q 2878 3584 2943 3579 
Q 3009 3575 3134 3559 
L 3138 2547 
z
" transform="scale(0.015625)"/>
      <path id="DejaVuSans-Bold-75" d="M 500 1363 
L 500 3500 
L 1625 3500 
L 1625 3150 
Q 1625 2866 1622 2436 
Q 1619 2006 1619 1863 
Q 1619 1441 1641 1255 
Q 1663 1069 1716 984 
Q 1784 875 1895 815 
Q 2006 756 2150 756 
Q 2500 756 2700 1025 
Q 2900 1294 2900 1772 
L 2900 3500 
L 4019 3500 
L 4019 0 
L 2900 0 
L 2900 506 
Q 2647 200 2364 54 
Q 2081 -91 1741 -91 
Q 1134 -91 817 281 
Q 500 653 500 1363 
z
" transform="scale(0.015625)"/>
      <path id="DejaVuSans-Bold-70" d="M 1656 506 
L 1656 -1331 
L 538 -1331 
L 538 3500 
L 1656 3500 
L 1656 2988 
Q 1888 3294 2169 3439 
Q 2450 3584 2816 3584 
Q 3463 3584 3878 3070 
Q 4294 2556 4294 1747 
Q 4294 938 3878 423 
Q 3463 -91 2816 -91 
Q 2450 -91 2169 54 
Q 1888 200 1656 506 
z
M 2400 2772 
Q 2041 2772 1848 2508 
Q 1656 2244 1656 1747 
Q 1656 1250 1848 986 
Q 2041 722 2400 722 
Q 2759 722 2948 984 
Q 3138 1247 3138 1747 
Q 3138 2247 2948 2509 
Q 2759 2772 2400 2772 
z
" transform="scale(0.015625)"/>
      <path id="DejaVuSans-Bold-20" transform="scale(0.015625)"/>
      <path id="DejaVuSans-Bold-54" d="M 31 4666 
L 4331 4666 
L 4331 3756 
L 2784 3756 
L 2784 0 
L 1581 0 
L 1581 3756 
L 31 3756 
L 31 4666 
z
" transform="scale(0.015625)"/>
      <path id="DejaVuSans-Bold-6d" d="M 3781 2919 
Q 3994 3244 4286 3414 
Q 4578 3584 4928 3584 
Q 5531 3584 5847 3212 
Q 6163 2841 6163 2131 
L 6163 0 
L 5038 0 
L 5038 1825 
Q 5041 1866 5042 1909 
Q 5044 1953 5044 2034 
Q 5044 2406 4934 2573 
Q 4825 2741 4581 2741 
Q 4263 2741 4089 2478 
Q 3916 2216 3909 1719 
L 3909 0 
L 2784 0 
L 2784 1825 
Q 2784 2406 2684 2573 
Q 2584 2741 2328 2741 
Q 2006 2741 1831 2477 
Q 1656 2213 1656 1722 
L 1656 0 
L 531 0 
L 531 3500 
L 1656 3500 
L 1656 2988 
Q 1863 3284 2130 3434 
Q 2397 3584 2719 3584 
Q 3081 3584 3359 3409 
Q 3638 3234 3781 2919 
z
" transform="scale(0.015625)"/>
     </defs>
     <use xlink:href="#DejaVuSans-Bold-53"/>
     <use xlink:href="#DejaVuSans-Bold-74" x="72.021484"/>
     <use xlink:href="#DejaVuSans-Bold-61" x="119.824219"/>
     <use xlink:href="#DejaVuSans-Bold-72" x="187.304688"/>
     <use xlink:href="#DejaVuSans-Bold-74" x="236.621094"/>
     <use xlink:href="#DejaVuSans-Bold-75" x="284.423828"/>
     <use xlink:href="#DejaVuSans-Bold-70" x="355.615234"/>
     <use xlink:href="#DejaVuSans-Bold-20" x="427.197266"/>
     <use xlink:href="#DejaVuSans-Bold-54" x="462.011719"/>
     <use xlink:href="#DejaVuSans-Bold-65" x="516.974609"/>
     <use xlink:href="#DejaVuSans-Bold-61" x="584.796875"/>
     <use xlink:href="#DejaVuSans-Bold-6d" x="652.277344"/>
    </g>
   </g>
   <g id="text_3">
    <!-- Agentic AI Crew -->
    <g style="fill: #333333" transform="translate(24.6375 267.323625) scale(0.12 -0.12)">
     <defs>
      <path id="DejaVuSans-Bold-41" d="M 3419 850 
L 1538 850 
L 1241 0 
L 31 0 
L 1759 4666 
L 3194 4666 
L 4922 0 
L 3713 0 
L 3419 850 
z
M 1838 1716 
L 3116 1716 
L 2478 3572 
L 1838 1716 
z
" transform="scale(0.015625)"/>
      <path id="DejaVuSans-Bold-67" d="M 2919 594 
Q 2688 288 2409 144 
Q 2131 0 1766 0 
Q 1125 0 706 504 
Q 288 1009 288 1791 
Q 288 2575 706 3076 
Q 1125 3578 1766 3578 
Q 2131 3578 2409 3434 
Q 2688 3291 2919 2981 
L 2919 3500 
L 4044 3500 
L 4044 353 
Q 4044 -491 3511 -936 
Q 2978 -1381 1966 -1381 
Q 1638 -1381 1331 -1331 
Q 1025 -1281 716 -1178 
L 716 -306 
Q 1009 -475 1290 -558 
Q 1572 -641 1856 -641 
Q 2406 -641 2662 -400 
Q 2919 -159 2919 353 
L 2919 594 
z
M 2181 2772 
Q 1834 2772 1640 2515 
Q 1447 2259 1447 1791 
Q 1447 1309 1634 1061 
Q 1822 813 2181 813 
Q 2531 813 2725 1069 
Q 2919 1325 2919 1791 
Q 2919 2259 2725 2515 
Q 2531 2772 2181 2772 
z
" transform="scale(0.015625)"/>
      <path id="DejaVuSans-Bold-63" d="M 3366 3391 
L 3366 2478 
Q 3138 2634 2908 2709 
Q 2678 2784 2431 2784 
Q 1963 2784 1702 2511 
Q 1441 2238 1441 1747 
Q 1441 1256 1702 982 
Q 1963 709 2431 709 
Q 2694 709 2930 787 
Q 3166 866 3366 1019 
L 3366 103 
Q 3103 6 2833 -42 
Q 2563 -91 2291 -91 
Q 1344 -91 809 395 
Q 275 881 275 1747 
Q 275 2613 809 3098 
Q 1344 3584 2291 3584 
Q 2566 3584 2833 3536 
Q 3100 3488 3366 3391 
z
" transform="scale(0.015625)"/>
      <path id="DejaVuSans-Bold-49" d="M 588 4666 
L 1791 4666 
L 1791 0 
L 588 0 
L 588 4666 
z
" transform="scale(0.015625)"/>
      <path id="DejaVuSans-Bold-77" d="M 225 3500 
L 1313 3500 
L 1900 1088 
L 2491 3500 
L 3425 3500 
L 4013 1113 
L 4603 3500 
L 5691 3500 
L 4769 0 
L 3547 0 
L 2956 2406 
L 2369 0 
L 1147 0 
L 225 3500 
z
" transform="scale(0.015625)"/>
     </defs>
     <use xlink:href="#DejaVuSans-Bold-41"/>
     <use xlink:href="#DejaVuSans-Bold-67" x="77.392578"/>
     <use xlink:href="#DejaVuSans-Bold-65" x="148.974609"/>
     <use xlink:href="#DejaVuSans-Bold-6e" x="216.796875"/>
     <use xlink:href="#DejaVuSans-Bold-74" x="287.988281"/>
     <use xlink:href="#DejaVuSans-Bold-69" x="335.791016"/>
     <use xlink:href="#DejaVuSans-Bold-63" x="370.068359"/>
     <use xlink:href="#DejaVuSans-Bold-20" x="429.345703"/>
     <use xlink:href="#DejaVuSans-Bold-41" x="464.160156"/>
     <use xlink:href="#DejaVuSans-Bold-49" x="541.552734"/>
     <use xlink:href="#DejaVuSans-Bold-20" x="578.759766"/>
     <use xlink:href="#DejaVuSans-Bold-43" x="613.574219"/>
     <use xlink:href="#DejaVuSans-Bold-72" x="686.962891"/>
     <use xlink:href="#DejaVuSans-Bold-65" x="736.279297"/>
     <use xlink:href="#DejaVuSans-Bold-77" x="804.101562"/>
    </g>
   </g>
   <g id="text_4">
    <!-- Governance/Compliance -->
    <g style="fill: #333333" transform="translate(24.6375 378.203625) scale(0.12 -0.12)">
     <defs>
      <path id="DejaVuSans-Bold-47" d="M 4781 347 
Q 4331 128 3847 18 
Q 3363 -91 2847 -91 
Q 1681 -91 1000 561 
Q 319 1213 319 2328 
Q 319 3456 1012 4103 
Q 1706 4750 2913 4750 
Q 3378 4750 3804 4662 
Q 4231 4575 4609 4403 
L 4609 3438 
Q 4219 3659 3833 3768 
Q 3447 3878 3059 3878 
Q 2341 3878 1952 3476 
Q 1563 3075 1563 2328 
Q 1563 1588 1938 1184 
Q 2313 781 3003 781 
Q 3191 781 3352 804 
Q 3513 828 3641 878 
L 3641 1784 
L 2906 1784 
L 2906 2591 
L 4781 2591 
L 4781 347 
z
" transform="scale(0.015625)"/>
      <path id="DejaVuSans-Bold-6f" d="M 2203 2784 
Q 1831 2784 1636 2517 
Q 1441 2250 1441 1747 
Q 1441 1244 1636 976 
Q 1831 709 2203 709 
Q 2569 709 2762 976 
Q 2956 1244 2956 1747 
Q 2956 2250 2762 2517 
Q 2569 2784 2203 2784 
z
M 2203 3584 
Q 3106 3584 3614 3096 
Q 4122 2609 4122 1747 
Q 4122 884 3614 396 
Q 3106 -91 2203 -91 
Q 1297 -91 786 396 
Q 275 884 275 1747 
Q 275 2609 786 3096 
Q 1297 3584 2203 3584 
z
" transform="scale(0.015625)"/>
      <path id="DejaVuSans-Bold-76" d="M 97 3500 
L 1216 3500 
L 2088 1081 
L 2956 3500 
L 4078 3500 
L 2700 0 
L 1472 0 
L 97 3500 
z
" transform="scale(0.015625)"/>
      <path id="DejaVuSans-Bold-2f" d="M 1644 4666 
L 2338 4666 
L 691 -594 
L 0 -594 
L 1644 4666 
z
" transform="scale(0.015625)"/>
     </defs>
     <use xlink:href="#DejaVuSans-Bold-47"/>
     <use xlink:href="#DejaVuSans-Bold-6f" x="82.080078"/>
     <use xlink:href="#DejaVuSans-Bold-76" x="150.78125"/>
     <use xlink:href="#DejaVuSans-Bold-65" x="215.966797"/>
     <use xlink:href="#DejaVuSans-Bold-72" x="283.789062"/>
     <use xlink:href="#DejaVuSans-Bold-6e" x="333.105469"/>
     <use xlink:href="#DejaVuSans-Bold-61" x="404.296875"/>
     <use xlink:href="#DejaVuSans-Bold-6e" x="471.777344"/>
     <use xlink:href="#DejaVuSans-Bold-63" x="542.96875"/>
     <use xlink:href="#DejaVuSans-Bold-65" x="602.246094"/>
     <use xlink:href="#DejaVuSans-Bold-2f" x="670.068359"/>
     <use xlink:href="#DejaVuSans-Bold-43" x="706.591797"/>
     <use xlink:href="#DejaVuSans-Bold-6f" x="779.980469"/>
     <use xlink:href="#DejaVuSans-Bold-6d" x="848.681641"/>
     <use xlink:href="#DejaVuSans-Bold-70" x="952.880859"/>
     <use xlink:href="#DejaVuSans-Bold-6c" x="1024.462891"/>
     <use xlink:href="#DejaVuSans-Bold-69" x="1058.740234"/>
     <use xlink:href="#DejaVuSans-Bold-61" x="1093.017578"/>
     <use xlink:href="#DejaVuSans-Bold-6e" x="1160.498047"/>
     <use xlink:href="#DejaVuSans-Bold-63" x="1231.689453"/>
     <use xlink:href="#DejaVuSans-Bold-65" x="1290.966797"/>
    </g>
   </g>
   <g id="text_5">
    <!-- Partners -->
    <g style="fill: #333333" transform="translate(24.6375 489.083625) scale(0.12 -0.12)">
     <defs>
      <path id="DejaVuSans-Bold-50" d="M 588 4666 
L 2584 4666 
Q 3475 4666 3951 4270 
Q 4428 3875 4428 3144 
Q 4428 2409 3951 2014 
Q 3475 1619 2584 1619 
L 1791 1619 
L 1791 0 
L 588 0 
L 588 4666 
z
M 1791 3794 
L 1791 2491 
L 2456 2491 
Q 2806 2491 2997 2661 
Q 3188 2831 3188 3144 
Q 3188 3456 2997 3625 
Q 2806 3794 2456 3794 
L 1791 3794 
z
" transform="scale(0.015625)"/>
      <path id="DejaVuSans-Bold-73" d="M 3272 3391 
L 3272 2541 
Q 2913 2691 2578 2766 
Q 2244 2841 1947 2841 
Q 1628 2841 1473 2761 
Q 1319 2681 1319 2516 
Q 1319 2381 1436 2309 
Q 1553 2238 1856 2203 
L 2053 2175 
Q 2913 2066 3209 1816 
Q 3506 1566 3506 1031 
Q 3506 472 3093 190 
Q 2681 -91 1863 -91 
Q 1516 -91 1145 -36 
Q 775 19 384 128 
L 384 978 
Q 719 816 1070 734 
Q 1422 653 1784 653 
Q 2113 653 2278 743 
Q 2444 834 2444 1013 
Q 2444 1163 2330 1236 
Q 2216 1309 1875 1350 
L 1678 1375 
Q 931 1469 631 1722 
Q 331 1975 331 2491 
Q 331 3047 712 3315 
Q 1094 3584 1881 3584 
Q 2191 3584 2531 3537 
Q 2872 3491 3272 3391 
z
" transform="scale(0.015625)"/>
     </defs>
     <use xlink:href="#DejaVuSans-Bold-50"/>
     <use xlink:href="#DejaVuSans-Bold-61" x="70.666016"/>
     <use xlink:href="#DejaVuSans-Bold-72" x="138.146484"/>
     <use xlink:href="#DejaVuSans-Bold-74" x="187.462891"/>
     <use xlink:href="#DejaVuSans-Bold-6e" x="235.265625"/>
     <use xlink:href="#DejaVuSans-Bold-65" x="306.457031"/>
     <use xlink:href="#DejaVuSans-Bold-72" x="374.279297"/>
     <use xlink:href="#DejaVuSans-Bold-73" x="423.595703"/>
    </g>
   </g>
   <g id="text_6">
    <!-- Submit RFP / Charter -->
    <g style="fill: #333333" transform="translate(47.205 83.280938) scale(0.09 -0.09)">
     <defs>
      <path id="DejaVuSans-53" d="M 3425 4513 
L 3425 3897 
Q 3066 4069 2747 4153 
Q 2428 4238 2131 4238 
Q 1616 4238 1336 4038 
Q 1056 3838 1056 3469 
Q 1056 3159 1242 3001 
Q 1428 2844 1947 2747 
L 2328 2669 
Q 3034 2534 3370 2195 
Q 3706 1856 3706 1288 
Q 3706 609 3251 259 
Q 2797 -91 1919 -91 
Q 1588 -91 1214 -16 
Q 841 59 441 206 
L 441 856 
Q 825 641 1194 531 
Q 1563 422 1919 422 
Q 2459 422 2753 634 
Q 3047 847 3047 1241 
Q 3047 1584 2836 1778 
Q 2625 1972 2144 2069 
L 1759 2144 
Q 1053 2284 737 2584 
Q 422 2884 422 3419 
Q 422 4038 858 4394 
Q 1294 4750 2059 4750 
Q 2388 4750 2728 4690 
Q 3069 4631 3425 4513 
z
" transform="scale(0.015625)"/>
      <path id="DejaVuSans-75" d="M 544 1381 
L 544 3500 
L 1119 3500 
L 1119 1403 
Q 1119 906 1312 657 
Q 1506 409 1894 409 
Q 2359 409 2629 706 
Q 2900 1003 2900 1516 
L 2900 3500 
L 3475 3500 
L 3475 0 
L 2900 0 
L 2900 538 
Q 2691 219 2414 64 
Q 2138 -91 1772 -91 
Q 1169 -91 856 284 
Q 544 659 544 1381 
z
M 1991 3584 
L 1991 3584 
z
" transform="scale(0.015625)"/>
      <path id="DejaVuSans-62" d="M 3116 1747 
Q 3116 2381 2855 2742 
Q 2594 3103 2138 3103 
Q 1681 3103 1420 2742 
Q 1159 2381 1159 1747 
Q 1159 1113 1420 752 
Q 1681 391 2138 391 
Q 2594 391 2855 752 
Q 3116 1113 3116 1747 
z
M 1159 2969 
Q 1341 3281 1617 3432 
Q 1894 3584 2278 3584 
Q 2916 3584 3314 3078 
Q 3713 2572 3713 1747 
Q 3713 922 3314 415 
Q 2916 -91 2278 -91 
Q 1894 -91 1617 61 
Q 1341 213 1159 525 
L 1159 0 
L 581 0 
L 581 4863 
L 1159 4863 
L 1159 2969 
z
" transform="scale(0.015625)"/>
      <path id="DejaVuSans-6d" d="M 3328 2828 
Q 3544 3216 3844 3400 
Q 4144 3584 4550 3584 
Q 5097 3584 5394 3201 
Q 5691 2819 5691 2113 
L 5691 0 
L 5113 0 
L 5113 2094 
Q 5113 2597 4934 2840 
Q 4756 3084 4391 3084 
Q 3944 3084 3684 2787 
Q 3425 2491 3425 1978 
L 3425 0 
L 2847 0 
L 2847 2094 
Q 2847 2600 2669 2842 
Q 2491 3084 2119 3084 
Q 1678 3084 1418 2786 
Q 1159 2488 1159 1978 
L 1159 0 
L 581 0 
L 581 3500 
L 1159 3500 
L 1159 2956 
Q 1356 3278 1631 3431 
Q 1906 3584 2284 3584 
Q 2666 3584 2933 3390 
Q 3200 3197 3328 2828 
z
" transform="scale(0.015625)"/>
      <path id="DejaVuSans-69" d="M 603 3500 
L 1178 3500 
L 1178 0 
L 603 0 
L 603 3500 
z
M 603 4863 
L 1178 4863 
L 1178 4134 
L 603 4134 
L 603 4863 
z
" transform="scale(0.015625)"/>
      <path id="DejaVuSans-74" d="M 1172 4494 
L 1172 3500 
L 2356 3500 
L 2356 3053 
L 1172 3053 
L 1172 1153 
Q 1172 725 1289 603 
Q 1406 481 1766 481 
L 2356 481 
L 2356 0 
L 1766 0 
Q 1100 0 847 248 
Q 594 497 594 1153 
L 594 3053 
L 172 3053 
L 172 3500 
L 594 3500 
L 594 4494 
L 1172 4494 
z
" transform="scale(0.015625)"/>
      <path id="DejaVuSans-20" transform="scale(0.015625)"/>
      <path id="DejaVuSans-52" d="M 2841 2188 
Q 3044 2119 3236 1894 
Q 3428 1669 3622 1275 
L 4263 0 
L 3584 0 
L 2988 1197 
Q 2756 1666 2539 1819 
Q 2322 1972 1947 1972 
L 1259 1972 
L 1259 0 
L 628 0 
L 628 4666 
L 2053 4666 
Q 2853 4666 3247 4331 
Q 3641 3997 3641 3322 
Q 3641 2881 3436 2590 
Q 3231 2300 2841 2188 
z
M 1259 4147 
L 1259 2491 
L 2053 2491 
Q 2509 2491 2742 2702 
Q 2975 2913 2975 3322 
Q 2975 3731 2742 3939 
Q 2509 4147 2053 4147 
L 1259 4147 
z
" transform="scale(0.015625)"/>
      <path id="DejaVuSans-46" d="M 628 4666 
L 3309 4666 
L 3309 4134 
L 1259 4134 
L 1259 2759 
L 3109 2759 
L 3109 2228 
L 1259 2228 
L 1259 0 
L 628 0 
L 628 4666 
z
" transform="scale(0.015625)"/>
      <path id="DejaVuSans-50" d="M 1259 4147 
L 1259 2394 
L 2053 2394 
Q 2494 2394 2734 2622 
Q 2975 2850 2975 3272 
Q 2975 3691 2734 3919 
Q 2494 4147 2053 4147 
L 1259 4147 
z
M 628 4666 
L 2053 4666 
Q 2838 4666 3239 4311 
Q 3641 3956 3641 3272 
Q 3641 2581 3239 2228 
Q 2838 1875 2053 1875 
L 1259 1875 
L 1259 0 
L 628 0 
L 628 4666 
z
" transform="scale(0.015625)"/>
      <path id="DejaVuSans-2f" d="M 1625 4666 
L 2156 4666 
L 531 -594 
L 0 -594 
L 1625 4666 
z
" transform="scale(0.015625)"/>
      <path id="DejaVuSans-43" d="M 4122 4306 
L 4122 3641 
Q 3803 3938 3442 4084 
Q 3081 4231 2675 4231 
Q 1875 4231 1450 3742 
Q 1025 3253 1025 2328 
Q 1025 1406 1450 917 
Q 1875 428 2675 428 
Q 3081 428 3442 575 
Q 3803 722 4122 1019 
L 4122 359 
Q 3791 134 3420 21 
Q 3050 -91 2638 -91 
Q 1578 -91 968 557 
Q 359 1206 359 2328 
Q 359 3453 968 4101 
Q 1578 4750 2638 4750 
Q 3056 4750 3426 4639 
Q 3797 4528 4122 4306 
z
" transform="scale(0.015625)"/>
      <path id="DejaVuSans-68" d="M 3513 2113 
L 3513 0 
L 2938 0 
L 2938 2094 
Q 2938 2591 2744 2837 
Q 2550 3084 2163 3084 
Q 1697 3084 1428 2787 
Q 1159 2491 1159 1978 
L 1159 0 
L 581 0 
L 581 4863 
L 1159 4863 
L 1159 2956 
Q 1366 3272 1645 3428 
Q 1925 3584 2291 3584 
Q 2894 3584 3203 3211 
Q 3513 2838 3513 2113 
z
" transform="scale(0.015625)"/>
      <path id="DejaVuSans-61" d="M 2194 1759 
Q 1497 1759 1228 1600 
Q 959 1441 959 1056 
Q 959 750 1161 570 
Q 1363 391 1709 391 
Q 2188 391 2477 730 
Q 2766 1069 2766 1631 
L 2766 1759 
L 2194 1759 
z
M 3341 1997 
L 3341 0 
L 2766 0 
L 2766 531 
Q 2569 213 2275 61 
Q 1981 -91 1556 -91 
Q 1019 -91 701 211 
Q 384 513 384 1019 
Q 384 1609 779 1909 
Q 1175 2209 1959 2209 
L 2766 2209 
L 2766 2266 
Q 2766 2663 2505 2880 
Q 2244 3097 1772 3097 
Q 1472 3097 1187 3025 
Q 903 2953 641 2809 
L 641 3341 
Q 956 3463 1253 3523 
Q 1550 3584 1831 3584 
Q 2591 3584 2966 3190 
Q 3341 2797 3341 1997 
z
" transform="scale(0.015625)"/>
      <path id="DejaVuSans-72" d="M 2631 2963 
Q 2534 3019 2420 3045 
Q 2306 3072 2169 3072 
Q 1681 3072 1420 2755 
Q 1159 2438 1159 1844 
L 1159 0 
L 581 0 
L 581 3500 
L 1159 3500 
L 1159 2956 
Q 1341 3275 1631 3429 
Q 1922 3584 2338 3584 
Q 2397 3584 2469 3576 
Q 2541 3569 2628 3553 
L 2631 2963 
z
" transform="scale(0.015625)"/>
      <path id="DejaVuSans-65" d="M 3597 1894 
L 3597 1613 
L 953 1613 
Q 991 1019 1311 708 
Q 1631 397 2203 397 
Q 2534 397 2845 478 
Q 3156 559 3463 722 
L 3463 178 
Q 3153 47 2828 -22 
Q 2503 -91 2169 -91 
Q 1331 -91 842 396 
Q 353 884 353 1716 
Q 353 2575 817 3079 
Q 1281 3584 2069 3584 
Q 2775 3584 3186 3129 
Q 3597 2675 3597 1894 
z
M 3022 2063 
Q 3016 2534 2758 2815 
Q 2500 3097 2075 3097 
Q 1594 3097 1305 2825 
Q 1016 2553 972 2059 
L 3022 2063 
z
" transform="scale(0.015625)"/>
     </defs>
     <use xlink:href="#DejaVuSans-53"/>
     <use xlink:href="#DejaVuSans-75" x="63.476562"/>
     <use xlink:href="#DejaVuSans-62" x="126.855469"/>
     <use xlink:href="#DejaVuSans-6d" x="190.332031"/>
     <use xlink:href="#DejaVuSans-69" x="287.744141"/>
     <use xlink:href="#DejaVuSans-74" x="315.527344"/>
     <use xlink:href="#DejaVuSans-20" x="354.736328"/>
     <use xlink:href="#DejaVuSans-52" x="386.523438"/>
     <use xlink:href="#DejaVuSans-46" x="456.005859"/>
     <use xlink:href="#DejaVuSans-50" x="513.525391"/>
     <use xlink:href="#DejaVuSans-20" x="573.828125"/>
     <use xlink:href="#DejaVuSans-2f" x="605.615234"/>
     <use xlink:href="#DejaVuSans-20" x="639.306641"/>
     <use xlink:href="#DejaVuSans-43" x="671.09375"/>
     <use xlink:href="#DejaVuSans-68" x="740.917969"/>
     <use xlink:href="#DejaVuSans-61" x="804.296875"/>
     <use xlink:href="#DejaVuSans-72" x="865.576172"/>
     <use xlink:href="#DejaVuSans-74" x="906.689453"/>
     <use xlink:href="#DejaVuSans-65" x="945.898438"/>
     <use xlink:href="#DejaVuSans-72" x="1007.421875"/>
    </g>
   </g>
   <g id="text_7">
    <!-- Validate Pilot / -->
    <g style="fill: #333333" transform="translate(515.62125 78.241922) scale(0.09 -0.09)">
     <defs>
      <path id="DejaVuSans-56" d="M 1831 0 
L 50 4666 
L 709 4666 
L 2188 738 
L 3669 4666 
L 4325 4666 
L 2547 0 
L 1831 0 
z
" transform="scale(0.015625)"/>
      <path id="DejaVuSans-6c" d="M 603 4863 
L 1178 4863 
L 1178 0 
L 603 0 
L 603 4863 
z
" transform="scale(0.015625)"/>
      <path id="DejaVuSans-64" d="M 2906 2969 
L 2906 4863 
L 3481 4863 
L 3481 0 
L 2906 0 
L 2906 525 
Q 2725 213 2448 61 
Q 2172 -91 1784 -91 
Q 1150 -91 751 415 
Q 353 922 353 1747 
Q 353 2572 751 3078 
Q 1150 3584 1784 3584 
Q 2172 3584 2448 3432 
Q 2725 3281 2906 2969 
z
M 947 1747 
Q 947 1113 1208 752 
Q 1469 391 1925 391 
Q 2381 391 2643 752 
Q 2906 1113 2906 1747 
Q 2906 2381 2643 2742 
Q 2381 3103 1925 3103 
Q 1469 3103 1208 2742 
Q 947 2381 947 1747 
z
" transform="scale(0.015625)"/>
      <path id="DejaVuSans-6f" d="M 1959 3097 
Q 1497 3097 1228 2736 
Q 959 2375 959 1747 
Q 959 1119 1226 758 
Q 1494 397 1959 397 
Q 2419 397 2687 759 
Q 2956 1122 2956 1747 
Q 2956 2369 2687 2733 
Q 2419 3097 1959 3097 
z
M 1959 3584 
Q 2709 3584 3137 3096 
Q 3566 2609 3566 1747 
Q 3566 888 3137 398 
Q 2709 -91 1959 -91 
Q 1206 -91 779 398 
Q 353 888 353 1747 
Q 353 2609 779 3096 
Q 1206 3584 1959 3584 
z
" transform="scale(0.015625)"/>
     </defs>
     <use xlink:href="#DejaVuSans-56"/>
     <use xlink:href="#DejaVuSans-61" x="60.658203"/>
     <use xlink:href="#DejaVuSans-6c" x="121.9375"/>
     <use xlink:href="#DejaVuSans-69" x="149.720703"/>
     <use xlink:href="#DejaVuSans-64" x="177.503906"/>
     <use xlink:href="#DejaVuSans-61" x="240.980469"/>
     <use xlink:href="#DejaVuSans-74" x="302.259766"/>
     <use xlink:href="#DejaVuSans-65" x="341.46875"/>
     <use xlink:href="#DejaVuSans-20" x="402.992188"/>
     <use xlink:href="#DejaVuSans-50" x="434.779297"/>
     <use xlink:href="#DejaVuSans-69" x="492.832031"/>
     <use xlink:href="#DejaVuSans-6c" x="520.615234"/>
     <use xlink:href="#DejaVuSans-6f" x="548.398438"/>
     <use xlink:href="#DejaVuSans-74" x="609.580078"/>
     <use xlink:href="#DejaVuSans-20" x="648.789062"/>
     <use xlink:href="#DejaVuSans-2f" x="680.576172"/>
    </g>
    <!-- Accept SLOs -->
    <g style="fill: #333333" transform="translate(519.906797 88.319953) scale(0.09 -0.09)">
     <defs>
      <path id="DejaVuSans-41" d="M 2188 4044 
L 1331 1722 
L 3047 1722 
L 2188 4044 
z
M 1831 4666 
L 2547 4666 
L 4325 0 
L 3669 0 
L 3244 1197 
L 1141 1197 
L 716 0 
L 50 0 
L 1831 4666 
z
" transform="scale(0.015625)"/>
      <path id="DejaVuSans-63" d="M 3122 3366 
L 3122 2828 
Q 2878 2963 2633 3030 
Q 2388 3097 2138 3097 
Q 1578 3097 1268 2742 
Q 959 2388 959 1747 
Q 959 1106 1268 751 
Q 1578 397 2138 397 
Q 2388 397 2633 464 
Q 2878 531 3122 666 
L 3122 134 
Q 2881 22 2623 -34 
Q 2366 -91 2075 -91 
Q 1284 -91 818 406 
Q 353 903 353 1747 
Q 353 2603 823 3093 
Q 1294 3584 2113 3584 
Q 2378 3584 2631 3529 
Q 2884 3475 3122 3366 
z
" transform="scale(0.015625)"/>
      <path id="DejaVuSans-70" d="M 1159 525 
L 1159 -1331 
L 581 -1331 
L 581 3500 
L 1159 3500 
L 1159 2969 
Q 1341 3281 1617 3432 
Q 1894 3584 2278 3584 
Q 2916 3584 3314 3078 
Q 3713 2572 3713 1747 
Q 3713 922 3314 415 
Q 2916 -91 2278 -91 
Q 1894 -91 1617 61 
Q 1341 213 1159 525 
z
M 3116 1747 
Q 3116 2381 2855 2742 
Q 2594 3103 2138 3103 
Q 1681 3103 1420 2742 
Q 1159 2381 1159 1747 
Q 1159 1113 1420 752 
Q 1681 391 2138 391 
Q 2594 391 2855 752 
Q 3116 1113 3116 1747 
z
" transform="scale(0.015625)"/>
      <path id="DejaVuSans-4c" d="M 628 4666 
L 1259 4666 
L 1259 531 
L 3531 531 
L 3531 0 
L 628 0 
L 628 4666 
z
" transform="scale(0.015625)"/>
      <path id="DejaVuSans-4f" d="M 2522 4238 
Q 1834 4238 1429 3725 
Q 1025 3213 1025 2328 
Q 1025 1447 1429 934 
Q 1834 422 2522 422 
Q 3209 422 3611 934 
Q 4013 1447 4013 2328 
Q 4013 3213 3611 3725 
Q 3209 4238 2522 4238 
z
M 2522 4750 
Q 3503 4750 4090 4092 
Q 4678 3434 4678 2328 
Q 4678 1225 4090 567 
Q 3503 -91 2522 -91 
Q 1538 -91 948 565 
Q 359 1222 359 2328 
Q 359 3434 948 4092 
Q 1538 4750 2522 4750 
z
" transform="scale(0.015625)"/>
      <path id="DejaVuSans-73" d="M 2834 3397 
L 2834 2853 
Q 2591 2978 2328 3040 
Q 2066 3103 1784 3103 
Q 1356 3103 1142 2972 
Q 928 2841 928 2578 
Q 928 2378 1081 2264 
Q 1234 2150 1697 2047 
L 1894 2003 
Q 2506 1872 2764 1633 
Q 3022 1394 3022 966 
Q 3022 478 2636 193 
Q 2250 -91 1575 -91 
Q 1294 -91 989 -36 
Q 684 19 347 128 
L 347 722 
Q 666 556 975 473 
Q 1284 391 1588 391 
Q 1994 391 2212 530 
Q 2431 669 2431 922 
Q 2431 1156 2273 1281 
Q 2116 1406 1581 1522 
L 1381 1569 
Q 847 1681 609 1914 
Q 372 2147 372 2553 
Q 372 3047 722 3315 
Q 1072 3584 1716 3584 
Q 2034 3584 2315 3537 
Q 2597 3491 2834 3397 
z
" transform="scale(0.015625)"/>
     </defs>
     <use xlink:href="#DejaVuSans-41"/>
     <use xlink:href="#DejaVuSans-63" x="66.658203"/>
     <use xlink:href="#DejaVuSans-63" x="121.638672"/>
     <use xlink:href="#DejaVuSans-65" x="176.619141"/>
     <use xlink:href="#DejaVuSans-70" x="238.142578"/>
     <use xlink:href="#DejaVuSans-74" x="301.619141"/>
     <use xlink:href="#DejaVuSans-20" x="340.828125"/>
     <use xlink:href="#DejaVuSans-53" x="372.615234"/>
     <use xlink:href="#DejaVuSans-4c" x="436.091797"/>
     <use xlink:href="#DejaVuSans-4f" x="488.179688"/>
     <use xlink:href="#DejaVuSans-73" x="566.890625"/>
    </g>
   </g>
   <g id="text_8">
    <!-- Go-Live &amp; Ops Handover -->
    <g style="fill: #333333" transform="translate(980.445234 83.280938) scale(0.09 -0.09)">
     <defs>
      <path id="DejaVuSans-47" d="M 3809 666 
L 3809 1919 
L 2778 1919 
L 2778 2438 
L 4434 2438 
L 4434 434 
Q 4069 175 3628 42 
Q 3188 -91 2688 -91 
Q 1594 -91 976 548 
Q 359 1188 359 2328 
Q 359 3472 976 4111 
Q 1594 4750 2688 4750 
Q 3144 4750 3555 4637 
Q 3966 4525 4313 4306 
L 4313 3634 
Q 3963 3931 3569 4081 
Q 3175 4231 2741 4231 
Q 1884 4231 1454 3753 
Q 1025 3275 1025 2328 
Q 1025 1384 1454 906 
Q 1884 428 2741 428 
Q 3075 428 3337 486 
Q 3600 544 3809 666 
z
" transform="scale(0.015625)"/>
      <path id="DejaVuSans-2d" d="M 313 2009 
L 1997 2009 
L 1997 1497 
L 313 1497 
L 313 2009 
z
" transform="scale(0.015625)"/>
      <path id="DejaVuSans-76" d="M 191 3500 
L 800 3500 
L 1894 563 
L 2988 3500 
L 3597 3500 
L 2284 0 
L 1503 0 
L 191 3500 
z
" transform="scale(0.015625)"/>
      <path id="DejaVuSans-26" d="M 1556 2509 
Q 1272 2256 1139 2004 
Q 1006 1753 1006 1478 
Q 1006 1022 1337 719 
Q 1669 416 2169 416 
Q 2466 416 2725 514 
Q 2984 613 3213 813 
L 1556 2509 
z
M 1997 2859 
L 3584 1234 
Q 3769 1513 3872 1830 
Q 3975 2147 3994 2503 
L 4575 2503 
Q 4538 2091 4375 1687 
Q 4213 1284 3922 891 
L 4794 0 
L 4006 0 
L 3559 459 
Q 3234 181 2878 45 
Q 2522 -91 2113 -91 
Q 1359 -91 881 339 
Q 403 769 403 1441 
Q 403 1841 612 2192 
Q 822 2544 1241 2853 
Q 1091 3050 1012 3245 
Q 934 3441 934 3628 
Q 934 4134 1281 4442 
Q 1628 4750 2203 4750 
Q 2463 4750 2720 4694 
Q 2978 4638 3244 4525 
L 3244 3956 
Q 2972 4103 2725 4179 
Q 2478 4256 2266 4256 
Q 1938 4256 1733 4082 
Q 1528 3909 1528 3634 
Q 1528 3475 1620 3314 
Q 1713 3153 1997 2859 
z
" transform="scale(0.015625)"/>
      <path id="DejaVuSans-48" d="M 628 4666 
L 1259 4666 
L 1259 2753 
L 3553 2753 
L 3553 4666 
L 4184 4666 
L 4184 0 
L 3553 0 
L 3553 2222 
L 1259 2222 
L 1259 0 
L 628 0 
L 628 4666 
z
" transform="scale(0.015625)"/>
      <path id="DejaVuSans-6e" d="M 3513 2113 
L 3513 0 
L 2938 0 
L 2938 2094 
Q 2938 2591 2744 2837 
Q 2550 3084 2163 3084 
Q 1697 3084 1428 2787 
Q 1159 2491 1159 1978 
L 1159 0 
L 581 0 
L 581 3500 
L 1159 3500 
L 1159 2956 
Q 1366 3272 1645 3428 
Q 1925 3584 2291 3584 
Q 2894 3584 3203 3211 
Q 3513 2838 3513 2113 
z
" transform="scale(0.015625)"/>
     </defs>
     <use xlink:href="#DejaVuSans-47"/>
     <use xlink:href="#DejaVuSans-6f" x="77.490234"/>
     <use xlink:href="#DejaVuSans-2d" x="140.546875"/>
     <use xlink:href="#DejaVuSans-4c" x="176.630859"/>
     <use xlink:href="#DejaVuSans-69" x="232.34375"/>
     <use xlink:href="#DejaVuSans-76" x="260.126953"/>
     <use xlink:href="#DejaVuSans-65" x="319.306641"/>
     <use xlink:href="#DejaVuSans-20" x="380.830078"/>
     <use xlink:href="#DejaVuSans-26" x="412.617188"/>
     <use xlink:href="#DejaVuSans-20" x="490.595703"/>
     <use xlink:href="#DejaVuSans-4f" x="522.382812"/>
     <use xlink:href="#DejaVuSans-70" x="601.09375"/>
     <use xlink:href="#DejaVuSans-73" x="664.570312"/>
     <use xlink:href="#DejaVuSans-20" x="716.669922"/>
     <use xlink:href="#DejaVuSans-48" x="748.457031"/>
     <use xlink:href="#DejaVuSans-61" x="823.652344"/>
     <use xlink:href="#DejaVuSans-6e" x="884.931641"/>
     <use xlink:href="#DejaVuSans-64" x="948.310547"/>
     <use xlink:href="#DejaVuSans-6f" x="1011.787109"/>
     <use xlink:href="#DejaVuSans-76" x="1072.96875"/>
     <use xlink:href="#DejaVuSans-65" x="1132.148438"/>
     <use xlink:href="#DejaVuSans-72" x="1193.671875"/>
    </g>
   </g>
   <g id="text_9">
    <!-- Review &amp; Intake -->
    <g style="fill: #333333" transform="translate(127.799297 194.160937) scale(0.09 -0.09)">
     <defs>
      <path id="DejaVuSans-77" d="M 269 3500 
L 844 3500 
L 1563 769 
L 2278 3500 
L 2956 3500 
L 3675 769 
L 4391 3500 
L 4966 3500 
L 4050 0 
L 3372 0 
L 2619 2869 
L 1863 0 
L 1184 0 
L 269 3500 
z
" transform="scale(0.015625)"/>
      <path id="DejaVuSans-49" d="M 628 4666 
L 1259 4666 
L 1259 0 
L 628 0 
L 628 4666 
z
" transform="scale(0.015625)"/>
      <path id="DejaVuSans-6b" d="M 581 4863 
L 1159 4863 
L 1159 1991 
L 2875 3500 
L 3609 3500 
L 1753 1863 
L 3688 0 
L 2938 0 
L 1159 1709 
L 1159 0 
L 581 0 
L 581 4863 
z
" transform="scale(0.015625)"/>
     </defs>
     <use xlink:href="#DejaVuSans-52"/>
     <use xlink:href="#DejaVuSans-65" x="64.982422"/>
     <use xlink:href="#DejaVuSans-76" x="126.505859"/>
     <use xlink:href="#DejaVuSans-69" x="185.685547"/>
     <use xlink:href="#DejaVuSans-65" x="213.46875"/>
     <use xlink:href="#DejaVuSans-77" x="274.992188"/>
     <use xlink:href="#DejaVuSans-20" x="356.779297"/>
     <use xlink:href="#DejaVuSans-26" x="388.566406"/>
     <use xlink:href="#DejaVuSans-20" x="466.544922"/>
     <use xlink:href="#DejaVuSans-49" x="498.332031"/>
     <use xlink:href="#DejaVuSans-6e" x="527.824219"/>
     <use xlink:href="#DejaVuSans-74" x="591.203125"/>
     <use xlink:href="#DejaVuSans-61" x="630.412109"/>
     <use xlink:href="#DejaVuSans-6b" x="691.691406"/>
     <use xlink:href="#DejaVuSans-65" x="745.976562"/>
    </g>
   </g>
   <g id="text_10">
    <!-- Define Scope &amp; Budget -->
    <g style="fill: #333333" transform="translate(216.377578 194.160937) scale(0.09 -0.09)">
     <defs>
      <path id="DejaVuSans-44" d="M 1259 4147 
L 1259 519 
L 2022 519 
Q 2988 519 3436 956 
Q 3884 1394 3884 2338 
Q 3884 3275 3436 3711 
Q 2988 4147 2022 4147 
L 1259 4147 
z
M 628 4666 
L 1925 4666 
Q 3281 4666 3915 4102 
Q 4550 3538 4550 2338 
Q 4550 1131 3912 565 
Q 3275 0 1925 0 
L 628 0 
L 628 4666 
z
" transform="scale(0.015625)"/>
      <path id="DejaVuSans-66" d="M 2375 4863 
L 2375 4384 
L 1825 4384 
Q 1516 4384 1395 4259 
Q 1275 4134 1275 3809 
L 1275 3500 
L 2222 3500 
L 2222 3053 
L 1275 3053 
L 1275 0 
L 697 0 
L 697 3053 
L 147 3053 
L 147 3500 
L 697 3500 
L 697 3744 
Q 697 4328 969 4595 
Q 1241 4863 1831 4863 
L 2375 4863 
z
" transform="scale(0.015625)"/>
      <path id="DejaVuSans-42" d="M 1259 2228 
L 1259 519 
L 2272 519 
Q 2781 519 3026 730 
Q 3272 941 3272 1375 
Q 3272 1813 3026 2020 
Q 2781 2228 2272 2228 
L 1259 2228 
z
M 1259 4147 
L 1259 2741 
L 2194 2741 
Q 2656 2741 2882 2914 
Q 3109 3088 3109 3444 
Q 3109 3797 2882 3972 
Q 2656 4147 2194 4147 
L 1259 4147 
z
M 628 4666 
L 2241 4666 
Q 2963 4666 3353 4366 
Q 3744 4066 3744 3513 
Q 3744 3084 3544 2831 
Q 3344 2578 2956 2516 
Q 3422 2416 3680 2098 
Q 3938 1781 3938 1306 
Q 3938 681 3513 340 
Q 3088 0 2303 0 
L 628 0 
L 628 4666 
z
" transform="scale(0.015625)"/>
      <path id="DejaVuSans-67" d="M 2906 1791 
Q 2906 2416 2648 2759 
Q 2391 3103 1925 3103 
Q 1463 3103 1205 2759 
Q 947 2416 947 1791 
Q 947 1169 1205 825 
Q 1463 481 1925 481 
Q 2391 481 2648 825 
Q 2906 1169 2906 1791 
z
M 3481 434 
Q 3481 -459 3084 -895 
Q 2688 -1331 1869 -1331 
Q 1566 -1331 1297 -1286 
Q 1028 -1241 775 -1147 
L 775 -588 
Q 1028 -725 1275 -790 
Q 1522 -856 1778 -856 
Q 2344 -856 2625 -561 
Q 2906 -266 2906 331 
L 2906 616 
Q 2728 306 2450 153 
Q 2172 0 1784 0 
Q 1141 0 747 490 
Q 353 981 353 1791 
Q 353 2603 747 3093 
Q 1141 3584 1784 3584 
Q 2172 3584 2450 3431 
Q 2728 3278 2906 2969 
L 2906 3500 
L 3481 3500 
L 3481 434 
z
" transform="scale(0.015625)"/>
     </defs>
     <use xlink:href="#DejaVuSans-44"/>
     <use xlink:href="#DejaVuSans-65" x="77.001953"/>
     <use xlink:href="#DejaVuSans-66" x="138.525391"/>
     <use xlink:href="#DejaVuSans-69" x="173.730469"/>
     <use xlink:href="#DejaVuSans-6e" x="201.513672"/>
     <use xlink:href="#DejaVuSans-65" x="264.892578"/>
     <use xlink:href="#DejaVuSans-20" x="326.416016"/>
     <use xlink:href="#DejaVuSans-53" x="358.203125"/>
     <use xlink:href="#DejaVuSans-63" x="421.679688"/>
     <use xlink:href="#DejaVuSans-6f" x="476.660156"/>
     <use xlink:href="#DejaVuSans-70" x="537.841797"/>
     <use xlink:href="#DejaVuSans-65" x="601.318359"/>
     <use xlink:href="#DejaVuSans-20" x="662.841797"/>
     <use xlink:href="#DejaVuSans-26" x="694.628906"/>
     <use xlink:href="#DejaVuSans-20" x="772.607422"/>
     <use xlink:href="#DejaVuSans-42" x="804.394531"/>
     <use xlink:href="#DejaVuSans-75" x="872.998047"/>
     <use xlink:href="#DejaVuSans-64" x="936.376953"/>
     <use xlink:href="#DejaVuSans-67" x="999.853516"/>
     <use xlink:href="#DejaVuSans-65" x="1063.330078"/>
     <use xlink:href="#DejaVuSans-74" x="1124.853516"/>
    </g>
   </g>
   <g id="text_11">
    <!-- Validate Design &amp; -->
    <g style="fill: #333333" transform="translate(542.595937 189.121922) scale(0.09 -0.09)">
     <use xlink:href="#DejaVuSans-56"/>
     <use xlink:href="#DejaVuSans-61" x="60.658203"/>
     <use xlink:href="#DejaVuSans-6c" x="121.9375"/>
     <use xlink:href="#DejaVuSans-69" x="149.720703"/>
     <use xlink:href="#DejaVuSans-64" x="177.503906"/>
     <use xlink:href="#DejaVuSans-61" x="240.980469"/>
     <use xlink:href="#DejaVuSans-74" x="302.259766"/>
     <use xlink:href="#DejaVuSans-65" x="341.46875"/>
     <use xlink:href="#DejaVuSans-20" x="402.992188"/>
     <use xlink:href="#DejaVuSans-44" x="434.779297"/>
     <use xlink:href="#DejaVuSans-65" x="511.78125"/>
     <use xlink:href="#DejaVuSans-73" x="573.304688"/>
     <use xlink:href="#DejaVuSans-69" x="625.404297"/>
     <use xlink:href="#DejaVuSans-67" x="653.1875"/>
     <use xlink:href="#DejaVuSans-6e" x="716.664062"/>
     <use xlink:href="#DejaVuSans-20" x="780.042969"/>
     <use xlink:href="#DejaVuSans-26" x="811.830078"/>
    </g>
    <!-- Dependencies -->
    <g style="fill: #333333" transform="translate(550.610859 199.199953) scale(0.09 -0.09)">
     <use xlink:href="#DejaVuSans-44"/>
     <use xlink:href="#DejaVuSans-65" x="77.001953"/>
     <use xlink:href="#DejaVuSans-70" x="138.525391"/>
     <use xlink:href="#DejaVuSans-65" x="202.001953"/>
     <use xlink:href="#DejaVuSans-6e" x="263.525391"/>
     <use xlink:href="#DejaVuSans-64" x="326.904297"/>
     <use xlink:href="#DejaVuSans-65" x="390.380859"/>
     <use xlink:href="#DejaVuSans-6e" x="451.904297"/>
     <use xlink:href="#DejaVuSans-63" x="515.283203"/>
     <use xlink:href="#DejaVuSans-69" x="570.263672"/>
     <use xlink:href="#DejaVuSans-65" x="598.046875"/>
     <use xlink:href="#DejaVuSans-73" x="659.570312"/>
    </g>
   </g>
   <g id="text_12">
    <!-- Negotiate MoU &amp; -->
    <g style="fill: #333333" transform="translate(718.662656 189.121922) scale(0.09 -0.09)">
     <defs>
      <path id="DejaVuSans-4e" d="M 628 4666 
L 1478 4666 
L 3547 763 
L 3547 4666 
L 4159 4666 
L 4159 0 
L 3309 0 
L 1241 3903 
L 1241 0 
L 628 0 
L 628 4666 
z
" transform="scale(0.015625)"/>
      <path id="DejaVuSans-4d" d="M 628 4666 
L 1569 4666 
L 2759 1491 
L 3956 4666 
L 4897 4666 
L 4897 0 
L 4281 0 
L 4281 4097 
L 3078 897 
L 2444 897 
L 1241 4097 
L 1241 0 
L 628 0 
L 628 4666 
z
" transform="scale(0.015625)"/>
      <path id="DejaVuSans-55" d="M 556 4666 
L 1191 4666 
L 1191 1831 
Q 1191 1081 1462 751 
Q 1734 422 2344 422 
Q 2950 422 3222 751 
Q 3494 1081 3494 1831 
L 3494 4666 
L 4128 4666 
L 4128 1753 
Q 4128 841 3676 375 
Q 3225 -91 2344 -91 
Q 1459 -91 1007 375 
Q 556 841 556 1753 
L 556 4666 
z
" transform="scale(0.015625)"/>
     </defs>
     <use xlink:href="#DejaVuSans-4e"/>
     <use xlink:href="#DejaVuSans-65" x="74.804688"/>
     <use xlink:href="#DejaVuSans-67" x="136.328125"/>
     <use xlink:href="#DejaVuSans-6f" x="199.804688"/>
     <use xlink:href="#DejaVuSans-74" x="260.986328"/>
     <use xlink:href="#DejaVuSans-69" x="300.195312"/>
     <use xlink:href="#DejaVuSans-61" x="327.978516"/>
     <use xlink:href="#DejaVuSans-74" x="389.257812"/>
     <use xlink:href="#DejaVuSans-65" x="428.466797"/>
     <use xlink:href="#DejaVuSans-20" x="489.990234"/>
     <use xlink:href="#DejaVuSans-4d" x="521.777344"/>
     <use xlink:href="#DejaVuSans-6f" x="608.056641"/>
     <use xlink:href="#DejaVuSans-55" x="669.238281"/>
     <use xlink:href="#DejaVuSans-20" x="742.431641"/>
     <use xlink:href="#DejaVuSans-26" x="774.21875"/>
    </g>
    <!-- Licensing -->
    <g style="fill: #333333" transform="translate(735.856875 199.199953) scale(0.09 -0.09)">
     <use xlink:href="#DejaVuSans-4c"/>
     <use xlink:href="#DejaVuSans-69" x="55.712891"/>
     <use xlink:href="#DejaVuSans-63" x="83.496094"/>
     <use xlink:href="#DejaVuSans-65" x="138.476562"/>
     <use xlink:href="#DejaVuSans-6e" x="200"/>
     <use xlink:href="#DejaVuSans-73" x="263.378906"/>
     <use xlink:href="#DejaVuSans-69" x="315.478516"/>
     <use xlink:href="#DejaVuSans-6e" x="343.261719"/>
     <use xlink:href="#DejaVuSans-67" x="406.640625"/>
    </g>
   </g>
   <g id="text_13">
    <!-- Adjust Processes -->
    <g style="fill: #333333" transform="translate(823.959141 194.160937) scale(0.09 -0.09)">
     <defs>
      <path id="DejaVuSans-6a" d="M 603 3500 
L 1178 3500 
L 1178 -63 
Q 1178 -731 923 -1031 
Q 669 -1331 103 -1331 
L -116 -1331 
L -116 -844 
L 38 -844 
Q 366 -844 484 -692 
Q 603 -541 603 -63 
L 603 3500 
z
M 603 4863 
L 1178 4863 
L 1178 4134 
L 603 4134 
L 603 4863 
z
" transform="scale(0.015625)"/>
     </defs>
     <use xlink:href="#DejaVuSans-41"/>
     <use xlink:href="#DejaVuSans-64" x="66.658203"/>
     <use xlink:href="#DejaVuSans-6a" x="130.134766"/>
     <use xlink:href="#DejaVuSans-75" x="157.917969"/>
     <use xlink:href="#DejaVuSans-73" x="221.296875"/>
     <use xlink:href="#DejaVuSans-74" x="273.396484"/>
     <use xlink:href="#DejaVuSans-20" x="312.605469"/>
     <use xlink:href="#DejaVuSans-50" x="344.392578"/>
     <use xlink:href="#DejaVuSans-72" x="402.945312"/>
     <use xlink:href="#DejaVuSans-6f" x="441.808594"/>
     <use xlink:href="#DejaVuSans-63" x="502.990234"/>
     <use xlink:href="#DejaVuSans-65" x="557.970703"/>
     <use xlink:href="#DejaVuSans-73" x="619.494141"/>
     <use xlink:href="#DejaVuSans-73" x="671.59375"/>
     <use xlink:href="#DejaVuSans-65" x="723.693359"/>
     <use xlink:href="#DejaVuSans-73" x="785.216797"/>
    </g>
   </g>
   <g id="text_14">
    <!-- Deploy &amp; Operate -->
    <g style="fill: #333333" transform="translate(1065.326484 194.160937) scale(0.09 -0.09)">
     <defs>
      <path id="DejaVuSans-79" d="M 2059 -325 
Q 1816 -950 1584 -1140 
Q 1353 -1331 966 -1331 
L 506 -1331 
L 506 -850 
L 844 -850 
Q 1081 -850 1212 -737 
Q 1344 -625 1503 -206 
L 1606 56 
L 191 3500 
L 800 3500 
L 1894 763 
L 2988 3500 
L 3597 3500 
L 2059 -325 
z
" transform="scale(0.015625)"/>
     </defs>
     <use xlink:href="#DejaVuSans-44"/>
     <use xlink:href="#DejaVuSans-65" x="77.001953"/>
     <use xlink:href="#DejaVuSans-70" x="138.525391"/>
     <use xlink:href="#DejaVuSans-6c" x="202.001953"/>
     <use xlink:href="#DejaVuSans-6f" x="229.785156"/>
     <use xlink:href="#DejaVuSans-79" x="290.966797"/>
     <use xlink:href="#DejaVuSans-20" x="350.146484"/>
     <use xlink:href="#DejaVuSans-26" x="381.933594"/>
     <use xlink:href="#DejaVuSans-20" x="459.912109"/>
     <use xlink:href="#DejaVuSans-4f" x="491.699219"/>
     <use xlink:href="#DejaVuSans-70" x="570.410156"/>
     <use xlink:href="#DejaVuSans-65" x="633.886719"/>
     <use xlink:href="#DejaVuSans-72" x="695.410156"/>
     <use xlink:href="#DejaVuSans-61" x="736.523438"/>
     <use xlink:href="#DejaVuSans-74" x="797.802734"/>
     <use xlink:href="#DejaVuSans-65" x="837.011719"/>
    </g>
   </g>
   <g id="text_15">
    <!-- Intake Agent parses &amp; -->
    <g style="fill: #333333" transform="translate(288.558281 300.001922) scale(0.09 -0.09)">
     <use xlink:href="#DejaVuSans-49"/>
     <use xlink:href="#DejaVuSans-6e" x="29.492188"/>
     <use xlink:href="#DejaVuSans-74" x="92.871094"/>
     <use xlink:href="#DejaVuSans-61" x="132.080078"/>
     <use xlink:href="#DejaVuSans-6b" x="193.359375"/>
     <use xlink:href="#DejaVuSans-65" x="247.644531"/>
     <use xlink:href="#DejaVuSans-20" x="309.167969"/>
     <use xlink:href="#DejaVuSans-41" x="340.955078"/>
     <use xlink:href="#DejaVuSans-67" x="409.363281"/>
     <use xlink:href="#DejaVuSans-65" x="472.839844"/>
     <use xlink:href="#DejaVuSans-6e" x="534.363281"/>
     <use xlink:href="#DejaVuSans-74" x="597.742188"/>
     <use xlink:href="#DejaVuSans-20" x="636.951172"/>
     <use xlink:href="#DejaVuSans-70" x="668.738281"/>
     <use xlink:href="#DejaVuSans-61" x="732.214844"/>
     <use xlink:href="#DejaVuSans-72" x="793.494141"/>
     <use xlink:href="#DejaVuSans-73" x="834.607422"/>
     <use xlink:href="#DejaVuSans-65" x="886.707031"/>
     <use xlink:href="#DejaVuSans-73" x="948.230469"/>
     <use xlink:href="#DejaVuSans-20" x="1000.330078"/>
     <use xlink:href="#DejaVuSans-26" x="1032.117188"/>
    </g>
    <!-- drafts placeholders -->
    <g style="fill: #333333" transform="translate(295.221094 310.079953) scale(0.09 -0.09)">
     <use xlink:href="#DejaVuSans-64"/>
     <use xlink:href="#DejaVuSans-72" x="63.476562"/>
     <use xlink:href="#DejaVuSans-61" x="104.589844"/>
     <use xlink:href="#DejaVuSans-66" x="165.869141"/>
     <use xlink:href="#DejaVuSans-74" x="199.324219"/>
     <use xlink:href="#DejaVuSans-73" x="238.533203"/>
     <use xlink:href="#DejaVuSans-20" x="290.632812"/>
     <use xlink:href="#DejaVuSans-70" x="322.419922"/>
     <use xlink:href="#DejaVuSans-6c" x="385.896484"/>
     <use xlink:href="#DejaVuSans-61" x="413.679688"/>
     <use xlink:href="#DejaVuSans-63" x="474.958984"/>
     <use xlink:href="#DejaVuSans-65" x="529.939453"/>
     <use xlink:href="#DejaVuSans-68" x="591.462891"/>
     <use xlink:href="#DejaVuSans-6f" x="654.841797"/>
     <use xlink:href="#DejaVuSans-6c" x="716.023438"/>
     <use xlink:href="#DejaVuSans-64" x="743.806641"/>
     <use xlink:href="#DejaVuSans-65" x="807.283203"/>
     <use xlink:href="#DejaVuSans-72" x="868.806641"/>
     <use xlink:href="#DejaVuSans-73" x="909.919922"/>
    </g>
   </g>
   <g id="text_16">
    <!-- Generate Compatibility -->
    <g style="fill: #333333" transform="translate(390.747656 300.001922) scale(0.09 -0.09)">
     <use xlink:href="#DejaVuSans-47"/>
     <use xlink:href="#DejaVuSans-65" x="77.490234"/>
     <use xlink:href="#DejaVuSans-6e" x="139.013672"/>
     <use xlink:href="#DejaVuSans-65" x="202.392578"/>
     <use xlink:href="#DejaVuSans-72" x="263.916016"/>
     <use xlink:href="#DejaVuSans-61" x="305.029297"/>
     <use xlink:href="#DejaVuSans-74" x="366.308594"/>
     <use xlink:href="#DejaVuSans-65" x="405.517578"/>
     <use xlink:href="#DejaVuSans-20" x="467.041016"/>
     <use xlink:href="#DejaVuSans-43" x="498.828125"/>
     <use xlink:href="#DejaVuSans-6f" x="568.652344"/>
     <use xlink:href="#DejaVuSans-6d" x="629.833984"/>
     <use xlink:href="#DejaVuSans-70" x="727.246094"/>
     <use xlink:href="#DejaVuSans-61" x="790.722656"/>
     <use xlink:href="#DejaVuSans-74" x="852.001953"/>
     <use xlink:href="#DejaVuSans-69" x="891.210938"/>
     <use xlink:href="#DejaVuSans-62" x="918.994141"/>
     <use xlink:href="#DejaVuSans-69" x="982.470703"/>
     <use xlink:href="#DejaVuSans-6c" x="1010.253906"/>
     <use xlink:href="#DejaVuSans-69" x="1038.037109"/>
     <use xlink:href="#DejaVuSans-74" x="1065.820312"/>
     <use xlink:href="#DejaVuSans-79" x="1105.029297"/>
    </g>
    <!-- &amp; Compliance Analysis -->
    <g style="fill: #333333" transform="translate(391.739063 310.079953) scale(0.09 -0.09)">
     <use xlink:href="#DejaVuSans-26"/>
     <use xlink:href="#DejaVuSans-20" x="77.978516"/>
     <use xlink:href="#DejaVuSans-43" x="109.765625"/>
     <use xlink:href="#DejaVuSans-6f" x="179.589844"/>
     <use xlink:href="#DejaVuSans-6d" x="240.771484"/>
     <use xlink:href="#DejaVuSans-70" x="338.183594"/>
     <use xlink:href="#DejaVuSans-6c" x="401.660156"/>
     <use xlink:href="#DejaVuSans-69" x="429.443359"/>
     <use xlink:href="#DejaVuSans-61" x="457.226562"/>
     <use xlink:href="#DejaVuSans-6e" x="518.505859"/>
     <use xlink:href="#DejaVuSans-63" x="581.884766"/>
     <use xlink:href="#DejaVuSans-65" x="636.865234"/>
     <use xlink:href="#DejaVuSans-20" x="698.388672"/>
     <use xlink:href="#DejaVuSans-41" x="730.175781"/>
     <use xlink:href="#DejaVuSans-6e" x="798.583984"/>
     <use xlink:href="#DejaVuSans-61" x="861.962891"/>
     <use xlink:href="#DejaVuSans-6c" x="923.242188"/>
     <use xlink:href="#DejaVuSans-79" x="951.025391"/>
     <use xlink:href="#DejaVuSans-73" x="1010.205078"/>
     <use xlink:href="#DejaVuSans-69" x="1062.304688"/>
     <use xlink:href="#DejaVuSans-73" x="1090.087891"/>
    </g>
   </g>
   <g id="text_17">
    <!-- Recommend QAI Bundle &amp; -->
    <g style="fill: #333333" transform="translate(557.9325 300.001922) scale(0.09 -0.09)">
     <defs>
      <path id="DejaVuSans-51" d="M 2522 4238 
Q 1834 4238 1429 3725 
Q 1025 3213 1025 2328 
Q 1025 1447 1429 934 
Q 1834 422 2522 422 
Q 3209 422 3611 934 
Q 4013 1447 4013 2328 
Q 4013 3213 3611 3725 
Q 3209 4238 2522 4238 
z
M 3406 84 
L 4238 -825 
L 3475 -825 
L 2784 -78 
Q 2681 -84 2626 -87 
Q 2572 -91 2522 -91 
Q 1538 -91 948 567 
Q 359 1225 359 2328 
Q 359 3434 948 4092 
Q 1538 4750 2522 4750 
Q 3503 4750 4090 4092 
Q 4678 3434 4678 2328 
Q 4678 1516 4351 937 
Q 4025 359 3406 84 
z
" transform="scale(0.015625)"/>
     </defs>
     <use xlink:href="#DejaVuSans-52"/>
     <use xlink:href="#DejaVuSans-65" x="64.982422"/>
     <use xlink:href="#DejaVuSans-63" x="126.505859"/>
     <use xlink:href="#DejaVuSans-6f" x="181.486328"/>
     <use xlink:href="#DejaVuSans-6d" x="242.667969"/>
     <use xlink:href="#DejaVuSans-6d" x="340.080078"/>
     <use xlink:href="#DejaVuSans-65" x="437.492188"/>
     <use xlink:href="#DejaVuSans-6e" x="499.015625"/>
     <use xlink:href="#DejaVuSans-64" x="562.394531"/>
     <use xlink:href="#DejaVuSans-20" x="625.871094"/>
     <use xlink:href="#DejaVuSans-51" x="657.658203"/>
     <use xlink:href="#DejaVuSans-41" x="736.369141"/>
     <use xlink:href="#DejaVuSans-49" x="804.777344"/>
     <use xlink:href="#DejaVuSans-20" x="834.269531"/>
     <use xlink:href="#DejaVuSans-42" x="866.056641"/>
     <use xlink:href="#DejaVuSans-75" x="934.660156"/>
     <use xlink:href="#DejaVuSans-6e" x="998.039062"/>
     <use xlink:href="#DejaVuSans-64" x="1061.417969"/>
     <use xlink:href="#DejaVuSans-6c" x="1124.894531"/>
     <use xlink:href="#DejaVuSans-65" x="1152.677734"/>
     <use xlink:href="#DejaVuSans-20" x="1214.201172"/>
     <use xlink:href="#DejaVuSans-26" x="1245.988281"/>
    </g>
    <!-- Roadmap -->
    <g style="fill: #333333" transform="translate(596.222578 310.079953) scale(0.09 -0.09)">
     <use xlink:href="#DejaVuSans-52"/>
     <use xlink:href="#DejaVuSans-6f" x="64.982422"/>
     <use xlink:href="#DejaVuSans-61" x="126.164062"/>
     <use xlink:href="#DejaVuSans-64" x="187.443359"/>
     <use xlink:href="#DejaVuSans-6d" x="250.919922"/>
     <use xlink:href="#DejaVuSans-61" x="348.332031"/>
     <use xlink:href="#DejaVuSans-70" x="409.611328"/>
    </g>
   </g>
   <g id="text_18">
    <!-- Pilot &amp; Ops Runbook -->
    <g style="fill: #333333" transform="translate(780.991875 300.001922) scale(0.09 -0.09)">
     <use xlink:href="#DejaVuSans-50"/>
     <use xlink:href="#DejaVuSans-69" x="58.052734"/>
     <use xlink:href="#DejaVuSans-6c" x="85.835938"/>
     <use xlink:href="#DejaVuSans-6f" x="113.619141"/>
     <use xlink:href="#DejaVuSans-74" x="174.800781"/>
     <use xlink:href="#DejaVuSans-20" x="214.009766"/>
     <use xlink:href="#DejaVuSans-26" x="245.796875"/>
     <use xlink:href="#DejaVuSans-20" x="323.775391"/>
     <use xlink:href="#DejaVuSans-4f" x="355.5625"/>
     <use xlink:href="#DejaVuSans-70" x="434.273438"/>
     <use xlink:href="#DejaVuSans-73" x="497.75"/>
     <use xlink:href="#DejaVuSans-20" x="549.849609"/>
     <use xlink:href="#DejaVuSans-52" x="581.636719"/>
     <use xlink:href="#DejaVuSans-75" x="646.619141"/>
     <use xlink:href="#DejaVuSans-6e" x="709.998047"/>
     <use xlink:href="#DejaVuSans-62" x="773.376953"/>
     <use xlink:href="#DejaVuSans-6f" x="836.853516"/>
     <use xlink:href="#DejaVuSans-6f" x="898.035156"/>
     <use xlink:href="#DejaVuSans-6b" x="959.216797"/>
    </g>
    <!-- Generation -->
    <g style="fill: #333333" transform="translate(801.658828 310.079953) scale(0.09 -0.09)">
     <use xlink:href="#DejaVuSans-47"/>
     <use xlink:href="#DejaVuSans-65" x="77.490234"/>
     <use xlink:href="#DejaVuSans-6e" x="139.013672"/>
     <use xlink:href="#DejaVuSans-65" x="202.392578"/>
     <use xlink:href="#DejaVuSans-72" x="263.916016"/>
     <use xlink:href="#DejaVuSans-61" x="305.029297"/>
     <use xlink:href="#DejaVuSans-74" x="366.308594"/>
     <use xlink:href="#DejaVuSans-69" x="405.517578"/>
     <use xlink:href="#DejaVuSans-6f" x="433.300781"/>
     <use xlink:href="#DejaVuSans-6e" x="494.482422"/>
    </g>
   </g>
   <g id="text_19">
    <!-- Review &amp; Approve -->
    <g style="fill: #333333" transform="translate(436.860703 415.920937) scale(0.09 -0.09)">
     <use xlink:href="#DejaVuSans-52"/>
     <use xlink:href="#DejaVuSans-65" x="64.982422"/>
     <use xlink:href="#DejaVuSans-76" x="126.505859"/>
     <use xlink:href="#DejaVuSans-69" x="185.685547"/>
     <use xlink:href="#DejaVuSans-65" x="213.46875"/>
     <use xlink:href="#DejaVuSans-77" x="274.992188"/>
     <use xlink:href="#DejaVuSans-20" x="356.779297"/>
     <use xlink:href="#DejaVuSans-26" x="388.566406"/>
     <use xlink:href="#DejaVuSans-20" x="466.544922"/>
     <use xlink:href="#DejaVuSans-41" x="498.332031"/>
     <use xlink:href="#DejaVuSans-70" x="566.740234"/>
     <use xlink:href="#DejaVuSans-70" x="630.216797"/>
     <use xlink:href="#DejaVuSans-72" x="693.693359"/>
     <use xlink:href="#DejaVuSans-6f" x="732.556641"/>
     <use xlink:href="#DejaVuSans-76" x="793.738281"/>
     <use xlink:href="#DejaVuSans-65" x="852.917969"/>
    </g>
   </g>
   <g id="text_20">
    <!-- Ensure ISO/NIST -->
    <g style="fill: #333333" transform="translate(895.006406 410.881922) scale(0.09 -0.09)">
     <defs>
      <path id="DejaVuSans-45" d="M 628 4666 
L 3578 4666 
L 3578 4134 
L 1259 4134 
L 1259 2753 
L 3481 2753 
L 3481 2222 
L 1259 2222 
L 1259 531 
L 3634 531 
L 3634 0 
L 628 0 
L 628 4666 
z
" transform="scale(0.015625)"/>
      <path id="DejaVuSans-54" d="M -19 4666 
L 3928 4666 
L 3928 4134 
L 2272 4134 
L 2272 0 
L 1638 0 
L 1638 4134 
L -19 4134 
L -19 4666 
z
" transform="scale(0.015625)"/>
     </defs>
     <use xlink:href="#DejaVuSans-45"/>
     <use xlink:href="#DejaVuSans-6e" x="63.183594"/>
     <use xlink:href="#DejaVuSans-73" x="126.5625"/>
     <use xlink:href="#DejaVuSans-75" x="178.662109"/>
     <use xlink:href="#DejaVuSans-72" x="242.041016"/>
     <use xlink:href="#DejaVuSans-65" x="280.904297"/>
     <use xlink:href="#DejaVuSans-20" x="342.427734"/>
     <use xlink:href="#DejaVuSans-49" x="374.214844"/>
     <use xlink:href="#DejaVuSans-53" x="403.707031"/>
     <use xlink:href="#DejaVuSans-4f" x="467.183594"/>
     <use xlink:href="#DejaVuSans-2f" x="545.894531"/>
     <use xlink:href="#DejaVuSans-4e" x="579.585938"/>
     <use xlink:href="#DejaVuSans-49" x="654.390625"/>
     <use xlink:href="#DejaVuSans-53" x="683.882812"/>
     <use xlink:href="#DejaVuSans-54" x="747.359375"/>
    </g>
    <!-- Alignment -->
    <g style="fill: #333333" transform="translate(908.332031 420.959953) scale(0.09 -0.09)">
     <use xlink:href="#DejaVuSans-41"/>
     <use xlink:href="#DejaVuSans-6c" x="68.408203"/>
     <use xlink:href="#DejaVuSans-69" x="96.191406"/>
     <use xlink:href="#DejaVuSans-67" x="123.974609"/>
     <use xlink:href="#DejaVuSans-6e" x="187.451172"/>
     <use xlink:href="#DejaVuSans-6d" x="250.830078"/>
     <use xlink:href="#DejaVuSans-65" x="348.242188"/>
     <use xlink:href="#DejaVuSans-6e" x="409.765625"/>
     <use xlink:href="#DejaVuSans-74" x="473.144531"/>
    </g>
   </g>
   <g id="text_21">
    <!-- Agree on Terms -->
    <g style="fill: #333333" transform="translate(652.324219 526.800937) scale(0.09 -0.09)">
     <use xlink:href="#DejaVuSans-41"/>
     <use xlink:href="#DejaVuSans-67" x="68.408203"/>
     <use xlink:href="#DejaVuSans-72" x="131.884766"/>
     <use xlink:href="#DejaVuSans-65" x="170.748047"/>
     <use xlink:href="#DejaVuSans-65" x="232.271484"/>
     <use xlink:href="#DejaVuSans-20" x="293.794922"/>
     <use xlink:href="#DejaVuSans-6f" x="325.582031"/>
     <use xlink:href="#DejaVuSans-6e" x="386.763672"/>
     <use xlink:href="#DejaVuSans-20" x="450.142578"/>
     <use xlink:href="#DejaVuSans-54" x="481.929688"/>
     <use xlink:href="#DejaVuSans-65" x="526.013672"/>
     <use xlink:href="#DejaVuSans-72" x="587.537109"/>
     <use xlink:href="#DejaVuSans-6d" x="626.900391"/>
     <use xlink:href="#DejaVuSans-73" x="724.3125"/>
    </g>
   </g>
   <g id="patch_23">
    <path d="M 148.698224 80.7975 
Q 321.075434 80.7975 491.663789 80.7975 
" style="fill: none; stroke: #000000; stroke-width: 1.6; stroke-linecap: round"/>
    <path d="M 487.663789 78.7975 
L 491.663789 80.7975 
L 487.663789 82.7975 
L 487.663789 78.7975 
z
" style="stroke: #000000; stroke-width: 1.6; stroke-linecap: round"/>
   </g>
   <g id="patch_24">
    <path d="M 602.074022 80.7975 
Q 791.886885 80.7975 979.910893 80.7975 
" style="fill: none; stroke: #000000; stroke-width: 1.6; stroke-linecap: round"/>
    <path d="M 975.910893 78.7975 
L 979.910893 80.7975 
L 975.910893 82.7975 
L 975.910893 78.7975 
z
" style="stroke: #000000; stroke-width: 1.6; stroke-linecap: round"/>
   </g>
   <g id="patch_25">
    <path d="M 216.45 191.6775 
Q 216.45 191.6775 216.45 191.6775 
" style="fill: none; stroke: #000000; stroke-width: 1.6; stroke-linecap: round"/>
   </g>
   <g id="patch_26">
    <path d="M 323.076949 191.6775 
Q 425.70009 191.6775 526.534375 191.6775 
" style="fill: none; stroke: #000000; stroke-width: 1.6; stroke-linecap: round"/>
    <path d="M 522.534375 189.6775 
L 526.534375 191.6775 
L 522.534375 193.6775 
L 522.534375 189.6775 
z
" style="stroke: #000000; stroke-width: 1.6; stroke-linecap: round"/>
   </g>
   <g id="patch_27">
    <path d="M 636.946628 191.6775 
Q 669.82463 191.6775 700.913778 191.6775 
" style="fill: none; stroke: #000000; stroke-width: 1.6; stroke-linecap: round"/>
    <path d="M 696.913778 189.6775 
L 700.913778 191.6775 
L 696.913778 193.6775 
L 696.913778 189.6775 
z
" style="stroke: #000000; stroke-width: 1.6; stroke-linecap: round"/>
   </g>
   <g id="patch_28">
    <path d="M 809.325 191.6775 
Q 809.325 191.6775 809.325 191.6775 
" style="fill: none; stroke: #000000; stroke-width: 1.6; stroke-linecap: round"/>
   </g>
   <g id="patch_29">
    <path d="M 915.946628 191.6775 
Q 983.697504 191.6775 1049.659525 191.6775 
" style="fill: none; stroke: #000000; stroke-width: 1.6; stroke-linecap: round"/>
    <path d="M 1045.659525 189.6775 
L 1049.659525 191.6775 
L 1045.659525 193.6775 
L 1045.659525 189.6775 
z
" style="stroke: #000000; stroke-width: 1.6; stroke-linecap: round"/>
   </g>
   <g id="patch_30">
    <path d="M 390.825 302.5575 
Q 390.825 302.5575 390.825 302.5575 
" style="fill: none; stroke: #000000; stroke-width: 1.6; stroke-linecap: round"/>
   </g>
   <g id="patch_31">
    <path d="M 497.446628 302.5575 
Q 530.32463 302.5575 561.413778 302.5575 
" style="fill: none; stroke: #000000; stroke-width: 1.6; stroke-linecap: round"/>
    <path d="M 557.413778 300.5575 
L 561.413778 302.5575 
L 557.413778 304.5575 
L 557.413778 300.5575 
z
" style="stroke: #000000; stroke-width: 1.6; stroke-linecap: round"/>
   </g>
   <g id="patch_32">
    <path d="M 671.826949 302.5575 
Q 722.137862 302.5575 770.659921 302.5575 
" style="fill: none; stroke: #000000; stroke-width: 1.6; stroke-linecap: round"/>
    <path d="M 766.659921 300.5575 
L 770.659921 302.5575 
L 766.659921 304.5575 
L 766.659921 300.5575 
z
" style="stroke: #000000; stroke-width: 1.6; stroke-linecap: round"/>
   </g>
   <g id="patch_33">
    <path d="M 532.323224 413.4375 
Q 704.700434 413.4375 875.288789 413.4375 
" style="fill: none; stroke: #000000; stroke-width: 1.6; stroke-linecap: round"/>
    <path d="M 871.288789 411.4375 
L 875.288789 413.4375 
L 871.288789 415.4375 
L 871.288789 411.4375 
z
" style="stroke: #000000; stroke-width: 1.6; stroke-linecap: round"/>
   </g>
   <g id="patch_34">
    <path d="M 146.100799 82.702573 
Q 129.262583 136.237238 112.826909 188.492074 
" style="fill: none; stroke-dasharray: 4.44,1.92; stroke-dashoffset: 0; stroke: #808080; stroke-width: 1.2; stroke-linecap: round"/>
    <path d="M 115.934916 185.276441 
L 112.826909 188.492074 
L 112.119207 184.076289 
L 115.934916 185.276441 
z
" style="fill: #808080; stroke-dasharray: 4.44,1.92; stroke-dashoffset: 0; stroke: #808080; stroke-width: 1.2; stroke-linecap: round"/>
   </g>
   <g id="patch_35">
    <path d="M 320.475799 193.582573 
Q 303.637583 247.117238 287.201909 299.372074 
" style="fill: none; stroke-dasharray: 4.44,1.92; stroke-dashoffset: 0; stroke: #808080; stroke-width: 1.2; stroke-linecap: round"/>
    <path d="M 290.309916 296.156441 
L 287.201909 299.372074 
L 286.494207 294.956289 
L 290.309916 296.156441 
z
" style="fill: #808080; stroke-dasharray: 4.44,1.92; stroke-dashoffset: 0; stroke: #808080; stroke-width: 1.2; stroke-linecap: round"/>
   </g>
   <g id="patch_36">
    <path d="M 494.383571 304.252778 
Q 460.575232 357.997132 427.481272 410.605852 
" style="fill: none; stroke-dasharray: 4.44,1.92; stroke-dashoffset: 0; stroke: #808080; stroke-width: 1.2; stroke-linecap: round"/>
    <path d="M 431.304042 408.284983 
L 427.481272 410.605852 
L 427.918239 406.155115 
L 431.304042 408.284983 
z
" style="fill: #808080; stroke-dasharray: 4.44,1.92; stroke-dashoffset: 0; stroke: #808080; stroke-width: 1.2; stroke-linecap: round"/>
   </g>
   <g id="patch_37">
    <path d="M 668.260478 301.313958 
Q 600.074646 247.117218 532.939098 193.755286 
" style="fill: none; stroke-dasharray: 4.44,1.92; stroke-dashoffset: 0; stroke: #808080; stroke-width: 1.2; stroke-linecap: round"/>
    <path d="M 534.825985 197.809871 
L 532.939098 193.755286 
L 537.314898 194.678527 
L 534.825985 197.809871 
z
" style="fill: #808080; stroke-dasharray: 4.44,1.92; stroke-dashoffset: 0; stroke: #808080; stroke-width: 1.2; stroke-linecap: round"/>
   </g>
   <g id="patch_38">
    <path d="M 808.397728 193.446376 
Q 722.137681 357.997154 636.500543 521.359664 
" style="fill: none; stroke-dasharray: 4.44,1.92; stroke-dashoffset: 0; stroke: #808080; stroke-width: 1.2; stroke-linecap: round"/>
    <path d="M 640.129067 518.745507 
L 636.500543 521.359664 
L 636.586332 516.888351 
L 640.129067 518.745507 
z
" style="fill: #808080; stroke-dasharray: 4.44,1.92; stroke-dashoffset: 0; stroke: #808080; stroke-width: 1.2; stroke-linecap: round"/>
   </g>
   <g id="patch_39">
    <path d="M 982.462751 411.864038 
Q 896.510753 302.555278 811.388046 194.301162 
" style="fill: none; stroke-dasharray: 4.44,1.92; stroke-dashoffset: 0; stroke: #808080; stroke-width: 1.2; stroke-linecap: round"/>
    <path d="M 812.288344 198.68174 
L 811.388046 194.301162 
L 815.432687 196.20927 
L 812.288344 198.68174 
z
" style="fill: #808080; stroke-dasharray: 4.44,1.92; stroke-dashoffset: 0; stroke: #808080; stroke-width: 1.2; stroke-linecap: round"/>
   </g>
   <g id="patch_40">
    <path d="M 877.345246 301.55759 
Q 687.264428 191.678614 498.345145 82.471081 
" style="fill: none; stroke-dasharray: 4.44,1.92; stroke-dashoffset: 0; stroke: #808080; stroke-width: 1.2; stroke-linecap: round"/>
    <path d="M 500.807248 86.204451 
L 498.345145 82.471081 
L 502.809103 82.74142 
L 500.807248 86.204451 
z
" style="fill: #808080; stroke-dasharray: 4.44,1.92; stroke-dashoffset: 0; stroke: #808080; stroke-width: 1.2; stroke-linecap: round"/>
   </g>
   <g id="patch_41">
    <path d="M 1156.385423 190.603147 
Q 1070.887219 136.237322 986.521159 82.591393 
" style="fill: none; stroke-dasharray: 4.44,1.92; stroke-dashoffset: 0; stroke: #808080; stroke-width: 1.2; stroke-linecap: round"/>
    <path d="M 988.823399 86.425411 
L 986.521159 82.591393 
L 990.969717 83.050012 
L 988.823399 86.425411 
z
" style="fill: #808080; stroke-dasharray: 4.44,1.92; stroke-dashoffset: 0; stroke: #808080; stroke-width: 1.2; stroke-linecap: round"/>
   </g>
   <g id="text_22">
    <!-- QAI Client Adoption Tool  Sequential Swimlane (Row-wise, No Overlap, Forward Flow) -->
    <g style="fill: #333333" transform="translate(171.66625 19.3575) scale(0.16 -0.16)">
     <defs>
      <path id="DejaVuSans-Bold-51" d="M 2847 -84 
L 2753 -84 
Q 1600 -84 959 553 
Q 319 1191 319 2328 
Q 319 3463 958 4106 
Q 1597 4750 2719 4750 
Q 3853 4750 4486 4112 
Q 5119 3475 5119 2328 
Q 5119 1541 4783 972 
Q 4447 403 3816 116 
L 4756 -934 
L 3609 -934 
L 2847 -84 
z
M 2719 3878 
Q 2169 3878 1866 3472 
Q 1563 3066 1563 2328 
Q 1563 1578 1859 1179 
Q 2156 781 2719 781 
Q 3272 781 3575 1187 
Q 3878 1594 3878 2328 
Q 3878 3066 3575 3472 
Q 3272 3878 2719 3878 
z
" transform="scale(0.015625)"/>
      <path id="DejaVuSans-Bold-64" d="M 2919 2988 
L 2919 4863 
L 4044 4863 
L 4044 0 
L 2919 0 
L 2919 506 
Q 2688 197 2409 53 
Q 2131 -91 1766 -91 
Q 1119 -91 703 423 
Q 288 938 288 1747 
Q 288 2556 703 3070 
Q 1119 3584 1766 3584 
Q 2128 3584 2408 3439 
Q 2688 3294 2919 2988 
z
M 2181 722 
Q 2541 722 2730 984 
Q 2919 1247 2919 1747 
Q 2919 2247 2730 2509 
Q 2541 2772 2181 2772 
Q 1825 2772 1636 2509 
Q 1447 2247 1447 1747 
Q 1447 1247 1636 984 
Q 1825 722 2181 722 
z
" transform="scale(0.015625)"/>
      <path id="DejaVuSans-Bold-2014" d="M 344 2156 
L 6056 2156 
L 6056 1350 
L 344 1350 
L 344 2156 
z
" transform="scale(0.015625)"/>
      <path id="DejaVuSans-Bold-71" d="M 2181 2772 
Q 1825 2772 1636 2509 
Q 1447 2247 1447 1747 
Q 1447 1247 1636 984 
Q 1825 722 2181 722 
Q 2541 722 2730 984 
Q 2919 1247 2919 1747 
Q 2919 2247 2730 2509 
Q 2541 2772 2181 2772 
z
M 2919 506 
Q 2688 197 2409 53 
Q 2131 -91 1766 -91 
Q 1119 -91 703 423 
Q 288 938 288 1747 
Q 288 2556 703 3067 
Q 1119 3578 1766 3578 
Q 2131 3578 2409 3434 
Q 2688 3291 2919 2981 
L 2919 3500 
L 4044 3500 
L 4044 -1331 
L 2919 -1331 
L 2919 506 
z
" transform="scale(0.015625)"/>
      <path id="DejaVuSans-Bold-28" d="M 2413 -844 
L 1484 -844 
Q 1006 -72 778 623 
Q 550 1319 550 2003 
Q 550 2688 779 3389 
Q 1009 4091 1484 4856 
L 2413 4856 
Q 2013 4116 1813 3408 
Q 1613 2700 1613 2009 
Q 1613 1319 1811 609 
Q 2009 -100 2413 -844 
z
" transform="scale(0.015625)"/>
      <path id="DejaVuSans-Bold-52" d="M 2297 2597 
Q 2675 2597 2839 2737 
Q 3003 2878 3003 3200 
Q 3003 3519 2839 3656 
Q 2675 3794 2297 3794 
L 1791 3794 
L 1791 2597 
L 2297 2597 
z
M 1791 1766 
L 1791 0 
L 588 0 
L 588 4666 
L 2425 4666 
Q 3347 4666 3776 4356 
Q 4206 4047 4206 3378 
Q 4206 2916 3982 2619 
Q 3759 2322 3309 2181 
Q 3556 2125 3751 1926 
Q 3947 1728 4147 1325 
L 4800 0 
L 3519 0 
L 2950 1159 
Q 2778 1509 2601 1637 
Q 2425 1766 2131 1766 
L 1791 1766 
z
" transform="scale(0.015625)"/>
      <path id="DejaVuSans-Bold-2d" d="M 347 2297 
L 2309 2297 
L 2309 1388 
L 347 1388 
L 347 2297 
z
" transform="scale(0.015625)"/>
      <path id="DejaVuSans-Bold-2c" d="M 653 1209 
L 1778 1209 
L 1778 256 
L 1006 -909 
L 341 -909 
L 653 256 
L 653 1209 
z
" transform="scale(0.015625)"/>
      <path id="DejaVuSans-Bold-4e" d="M 588 4666 
L 1931 4666 
L 3628 1466 
L 3628 4666 
L 4769 4666 
L 4769 0 
L 3425 0 
L 1728 3200 
L 1728 0 
L 588 0 
L 588 4666 
z
" transform="scale(0.015625)"/>
      <path id="DejaVuSans-Bold-4f" d="M 2719 3878 
Q 2169 3878 1866 3472 
Q 1563 3066 1563 2328 
Q 1563 1594 1866 1187 
Q 2169 781 2719 781 
Q 3272 781 3575 1187 
Q 3878 1594 3878 2328 
Q 3878 3066 3575 3472 
Q 3272 3878 2719 3878 
z
M 2719 4750 
Q 3844 4750 4481 4106 
Q 5119 3463 5119 2328 
Q 5119 1197 4481 553 
Q 3844 -91 2719 -91 
Q 1597 -91 958 553 
Q 319 1197 319 2328 
Q 319 3463 958 4106 
Q 1597 4750 2719 4750 
z
" transform="scale(0.015625)"/>
      <path id="DejaVuSans-Bold-46" d="M 588 4666 
L 3834 4666 
L 3834 3756 
L 1791 3756 
L 1791 2888 
L 3713 2888 
L 3713 1978 
L 1791 1978 
L 1791 0 
L 588 0 
L 588 4666 
z
" transform="scale(0.015625)"/>
      <path id="DejaVuSans-Bold-29" d="M 513 -844 
Q 913 -100 1113 609 
Q 1313 1319 1313 2009 
Q 1313 2700 1113 3408 
Q 913 4116 513 4856 
L 1441 4856 
Q 1916 4091 2145 3389 
Q 2375 2688 2375 2003 
Q 2375 1319 2147 623 
Q 1919 -72 1441 -844 
L 513 -844 
z
" transform="scale(0.015625)"/>
     </defs>
     <use xlink:href="#DejaVuSans-Bold-51"/>
     <use xlink:href="#DejaVuSans-Bold-41" x="85.009766"/>
     <use xlink:href="#DejaVuSans-Bold-49" x="162.402344"/>
     <use xlink:href="#DejaVuSans-Bold-20" x="199.609375"/>
     <use xlink:href="#DejaVuSans-Bold-43" x="234.423828"/>
     <use xlink:href="#DejaVuSans-Bold-6c" x="307.8125"/>
     <use xlink:href="#DejaVuSans-Bold-69" x="342.089844"/>
     <use xlink:href="#DejaVuSans-Bold-65" x="376.367188"/>
     <use xlink:href="#DejaVuSans-Bold-6e" x="444.189453"/>
     <use xlink:href="#DejaVuSans-Bold-74" x="515.380859"/>
     <use xlink:href="#DejaVuSans-Bold-20" x="563.183594"/>
     <use xlink:href="#DejaVuSans-Bold-41" x="597.998047"/>
     <use xlink:href="#DejaVuSans-Bold-64" x="675.390625"/>
     <use xlink:href="#DejaVuSans-Bold-6f" x="746.972656"/>
     <use xlink:href="#DejaVuSans-Bold-70" x="815.673828"/>
     <use xlink:href="#DejaVuSans-Bold-74" x="887.255859"/>
     <use xlink:href="#DejaVuSans-Bold-69" x="935.058594"/>
     <use xlink:href="#DejaVuSans-Bold-6f" x="969.335938"/>
     <use xlink:href="#DejaVuSans-Bold-6e" x="1038.037109"/>
     <use xlink:href="#DejaVuSans-Bold-20" x="1109.228516"/>
     <use xlink:href="#DejaVuSans-Bold-54" x="1144.042969"/>
     <use xlink:href="#DejaVuSans-Bold-6f" x="1199.005859"/>
     <use xlink:href="#DejaVuSans-Bold-6f" x="1267.707031"/>
     <use xlink:href="#DejaVuSans-Bold-6c" x="1336.408203"/>
     <use xlink:href="#DejaVuSans-Bold-20" x="1370.685547"/>
     <use xlink:href="#DejaVuSans-Bold-2014" x="1405.5"/>
     <use xlink:href="#DejaVuSans-Bold-20" x="1505.5"/>
     <use xlink:href="#DejaVuSans-Bold-53" x="1540.314453"/>
     <use xlink:href="#DejaVuSans-Bold-65" x="1612.335938"/>
     <use xlink:href="#DejaVuSans-Bold-71" x="1680.158203"/>
     <use xlink:href="#DejaVuSans-Bold-75" x="1751.740234"/>
     <use xlink:href="#DejaVuSans-Bold-65" x="1822.931641"/>
     <use xlink:href="#DejaVuSans-Bold-6e" x="1890.753906"/>
     <use xlink:href="#DejaVuSans-Bold-74" x="1961.945312"/>
     <use xlink:href="#DejaVuSans-Bold-69" x="2009.748047"/>
     <use xlink:href="#DejaVuSans-Bold-61" x="2044.025391"/>
     <use xlink:href="#DejaVuSans-Bold-6c" x="2111.505859"/>
     <use xlink:href="#DejaVuSans-Bold-20" x="2145.783203"/>
     <use xlink:href="#DejaVuSans-Bold-53" x="2180.597656"/>
     <use xlink:href="#DejaVuSans-Bold-77" x="2252.619141"/>
     <use xlink:href="#DejaVuSans-Bold-69" x="2345.001953"/>
     <use xlink:href="#DejaVuSans-Bold-6d" x="2379.279297"/>
     <use xlink:href="#DejaVuSans-Bold-6c" x="2483.478516"/>
     <use xlink:href="#DejaVuSans-Bold-61" x="2517.755859"/>
     <use xlink:href="#DejaVuSans-Bold-6e" x="2585.236328"/>
     <use xlink:href="#DejaVuSans-Bold-65" x="2656.427734"/>
     <use xlink:href="#DejaVuSans-Bold-20" x="2724.25"/>
     <use xlink:href="#DejaVuSans-Bold-28" x="2759.064453"/>
     <use xlink:href="#DejaVuSans-Bold-52" x="2804.767578"/>
     <use xlink:href="#DejaVuSans-Bold-6f" x="2881.769531"/>
     <use xlink:href="#DejaVuSans-Bold-77" x="2950.470703"/>
     <use xlink:href="#DejaVuSans-Bold-2d" x="3042.853516"/>
     <use xlink:href="#DejaVuSans-Bold-77" x="3084.357422"/>
     <use xlink:href="#DejaVuSans-Bold-69" x="3176.740234"/>
     <use xlink:href="#DejaVuSans-Bold-73" x="3211.017578"/>
     <use xlink:href="#DejaVuSans-Bold-65" x="3270.539062"/>
     <use xlink:href="#DejaVuSans-Bold-2c" x="3338.361328"/>
     <use xlink:href="#DejaVuSans-Bold-20" x="3376.349609"/>
     <use xlink:href="#DejaVuSans-Bold-4e" x="3411.164062"/>
     <use xlink:href="#DejaVuSans-Bold-6f" x="3494.855469"/>
     <use xlink:href="#DejaVuSans-Bold-20" x="3563.556641"/>
     <use xlink:href="#DejaVuSans-Bold-4f" x="3598.371094"/>
     <use xlink:href="#DejaVuSans-Bold-76" x="3683.380859"/>
     <use xlink:href="#DejaVuSans-Bold-65" x="3748.566406"/>
     <use xlink:href="#DejaVuSans-Bold-72" x="3816.388672"/>
     <use xlink:href="#DejaVuSans-Bold-6c" x="3865.705078"/>
     <use xlink:href="#DejaVuSans-Bold-61" x="3899.982422"/>
     <use xlink:href="#DejaVuSans-Bold-70" x="3967.462891"/>
     <use xlink:href="#DejaVuSans-Bold-2c" x="4039.044922"/>
     <use xlink:href="#DejaVuSans-Bold-20" x="4077.033203"/>
     <use xlink:href="#DejaVuSans-Bold-46" x="4111.847656"/>
     <use xlink:href="#DejaVuSans-Bold-6f" x="4176.158203"/>
     <use xlink:href="#DejaVuSans-Bold-72" x="4244.859375"/>
     <use xlink:href="#DejaVuSans-Bold-77" x="4294.175781"/>
     <use xlink:href="#DejaVuSans-Bold-61" x="4386.558594"/>
     <use xlink:href="#DejaVuSans-Bold-72" x="4454.039062"/>
     <use xlink:href="#DejaVuSans-Bold-64" x="4503.355469"/>
     <use xlink:href="#DejaVuSans-Bold-20" x="4574.9375"/>
     <use xlink:href="#DejaVuSans-Bold-46" x="4609.751953"/>
     <use xlink:href="#DejaVuSans-Bold-6c" x="4678.0625"/>
     <use xlink:href="#DejaVuSans-Bold-6f" x="4712.339844"/>
     <use xlink:href="#DejaVuSans-Bold-77" x="4781.041016"/>
     <use xlink:href="#DejaVuSans-Bold-29" x="4873.423828"/>
    </g>
   </g>
  </g>
 </g>
 <defs>
  <clipPath id="pdd34959e8a">
   <rect x="7.2" y="25.3575" width="1116" height="665.28"/>
  </clipPath>
 </defs>
</svg>
